ISO-10303-21;
HEADER;
/* Generated by software containing ST-Developer
 * from STEP Tools, Inc. (www.steptools.com) 
 */
/* OPTION: using custom schema-name function */

FILE_DESCRIPTION(
/* description */ (''),
/* implementation_level */ '2;1');

FILE_NAME(
/* name */ 'hardkill-tek.stp',
/* time_stamp */ '2024-03-11T11:31:49+03:00',
/* author */ (''),
/* organization */ (''),
/* preprocessor_version */ 'ST-DEVELOPER v18.1',
/* originating_system */ 'SIEMENS PLM Software NX 1973',
/* authorisation */ '');

FILE_SCHEMA (('AUTOMOTIVE_DESIGN { 1 0 10303 214 3 1 1 1 }'));
ENDSEC;

DATA;
#10=SHAPE_REPRESENTATION_RELATIONSHIP('None',
'relationship between hardkill-tek-None and hardkill-tek-None',#22,#11);
#11=ADVANCED_BREP_SHAPE_REPRESENTATION('hardkill-tek-None',(#32),#1845);
#12=SHAPE_DEFINITION_REPRESENTATION(#13,#22);
#13=PRODUCT_DEFINITION_SHAPE('','',#14);
#14=PRODUCT_DEFINITION(' ','',#16,#15);
#15=PRODUCT_DEFINITION_CONTEXT('part definition',#21,'design');
#16=PRODUCT_DEFINITION_FORMATION_WITH_SPECIFIED_SOURCE(' ',' ',#18,
 .NOT_KNOWN.);
#17=PRODUCT_RELATED_PRODUCT_CATEGORY('part','',(#18));
#18=PRODUCT('hardkill-tek','hardkill-tek',' ',(#19));
#19=PRODUCT_CONTEXT(' ',#21,'mechanical');
#20=APPLICATION_PROTOCOL_DEFINITION('international standard',
'automotive_design',2010,#21);
#21=APPLICATION_CONTEXT(
'core data for automotive mechanical design processes');
#22=SHAPE_REPRESENTATION('hardkill-tek-None',(#1044),#1845);
#23=PRESENTATION_LAYER_ASSIGNMENT('2','Layer 2',(#32));
#24=STYLED_ITEM('',(#25),#32);
#25=PRESENTATION_STYLE_ASSIGNMENT((#26));
#26=SURFACE_STYLE_USAGE(.BOTH.,#27);
#27=SURFACE_SIDE_STYLE('',(#28));
#28=SURFACE_STYLE_FILL_AREA(#29);
#29=FILL_AREA_STYLE('',(#30));
#30=FILL_AREA_STYLE_COLOUR('',#31);
#31=COLOUR_RGB('medium steel',0.596078431372549,0.666666666666667,0.686274509803922);
#32=MANIFOLD_SOLID_BREP('',#33);
#33=CLOSED_SHELL('',(#251,#252,#253,#254,#255,#256,#257,#258,#259,#260,
#261,#262,#263,#264,#265,#266,#267,#268,#269,#270,#271,#272,#273,#274,#275,
#276,#277,#278,#279,#280,#281,#282,#283,#284,#285,#286,#287,#288,#289,#290,
#291,#292,#293,#294,#295,#296,#297,#298,#299,#300,#301,#302,#303,#304,#305,
#306,#307,#308));
#34=TOROIDAL_SURFACE('',#1111,14.2230773783617,5.23809523809524);
#35=(
BOUNDED_SURFACE()
B_SPLINE_SURFACE(3,3,((#1708,#1709,#1710,#1711,#1712,#1713,#1714),(#1715,
#1716,#1717,#1718,#1719,#1720,#1721),(#1722,#1723,#1724,#1725,#1726,#1727,
#1728),(#1729,#1730,#1731,#1732,#1733,#1734,#1735)),.UNSPECIFIED.,.F.,.T.,
 .F.)
B_SPLINE_SURFACE_WITH_KNOTS((4,4),(1,3,3,3,1),(0.,1.),(-0.5,0.,0.5,1.,1.5),
 .UNSPECIFIED.)
GEOMETRIC_REPRESENTATION_ITEM()
RATIONAL_B_SPLINE_SURFACE(((1.,0.333333333333333,0.333333333333333,1.,0.333333333333333,
0.333333333333333,1.),(0.972225887940777,0.324075295980259,0.324075295980259,
0.972225887940777,0.324075295980259,0.324075295980259,0.972225887940777),
(0.972225887940777,0.324075295980259,0.324075295980259,0.972225887940777,
0.324075295980259,0.324075295980259,0.972225887940777),(1.,0.333333333333333,
0.333333333333333,1.,0.333333333333333,0.333333333333333,1.)))
REPRESENTATION_ITEM('')
SURFACE()
);
#36=FACE_BOUND('',#390,.T.);
#37=FACE_BOUND('',#391,.T.);
#38=FACE_BOUND('',#392,.T.);
#39=FACE_BOUND('',#393,.T.);
#40=FACE_BOUND('',#394,.T.);
#41=FACE_BOUND('',#395,.T.);
#42=FACE_BOUND('',#396,.T.);
#43=FACE_BOUND('',#397,.T.);
#44=FACE_BOUND('',#398,.T.);
#45=FACE_BOUND('',#399,.T.);
#46=FACE_BOUND('',#400,.T.);
#47=FACE_BOUND('',#426,.T.);
#48=FACE_BOUND('',#427,.T.);
#49=PLANE('',#1074);
#50=PLANE('',#1089);
#51=PLANE('',#1091);
#52=PLANE('',#1093);
#53=PLANE('',#1095);
#54=PLANE('',#1097);
#55=PLANE('',#1099);
#56=PLANE('',#1101);
#57=PLANE('',#1103);
#58=PLANE('',#1105);
#59=PLANE('',#1107);
#60=PLANE('',#1112);
#61=PLANE('',#1113);
#62=PLANE('',#1114);
#63=PLANE('',#1115);
#64=PLANE('',#1116);
#65=PLANE('',#1117);
#66=PLANE('',#1118);
#67=PLANE('',#1119);
#68=PLANE('',#1120);
#69=PLANE('',#1121);
#70=PLANE('',#1122);
#71=PLANE('',#1123);
#72=PLANE('',#1124);
#73=PLANE('',#1125);
#74=PLANE('',#1126);
#75=PLANE('',#1127);
#76=PLANE('',#1128);
#77=PLANE('',#1129);
#78=PLANE('',#1130);
#79=PLANE('',#1131);
#80=PLANE('',#1132);
#81=PLANE('',#1134);
#82=PLANE('',#1136);
#83=PLANE('',#1138);
#84=PLANE('',#1140);
#85=PLANE('',#1142);
#86=PLANE('',#1143);
#87=PLANE('',#1144);
#88=PLANE('',#1145);
#89=PLANE('',#1146);
#90=PLANE('',#1147);
#91=PLANE('',#1148);
#92=PLANE('',#1149);
#93=PLANE('',#1150);
#94=PLANE('',#1151);
#95=LINE('',#1539,#173);
#96=LINE('',#1544,#174);
#97=LINE('',#1546,#175);
#98=LINE('',#1624,#176);
#99=LINE('',#1626,#177);
#100=LINE('',#1630,#178);
#101=LINE('',#1632,#179);
#102=LINE('',#1637,#180);
#103=LINE('',#1639,#181);
#104=LINE('',#1643,#182);
#105=LINE('',#1645,#183);
#106=LINE('',#1650,#184);
#107=LINE('',#1652,#185);
#108=LINE('',#1656,#186);
#109=LINE('',#1658,#187);
#110=LINE('',#1663,#188);
#111=LINE('',#1665,#189);
#112=LINE('',#1669,#190);
#113=LINE('',#1671,#191);
#114=LINE('',#1676,#192);
#115=LINE('',#1677,#193);
#116=LINE('',#1678,#194);
#117=LINE('',#1679,#195);
#118=LINE('',#1680,#196);
#119=LINE('',#1681,#197);
#120=LINE('',#1682,#198);
#121=LINE('',#1683,#199);
#122=LINE('',#1737,#200);
#123=LINE('',#1739,#201);
#124=LINE('',#1741,#202);
#125=LINE('',#1743,#203);
#126=LINE('',#1745,#204);
#127=LINE('',#1747,#205);
#128=LINE('',#1749,#206);
#129=LINE('',#1750,#207);
#130=LINE('',#1752,#208);
#131=LINE('',#1753,#209);
#132=LINE('',#1755,#210);
#133=LINE('',#1756,#211);
#134=LINE('',#1758,#212);
#135=LINE('',#1760,#213);
#136=LINE('',#1762,#214);
#137=LINE('',#1764,#215);
#138=LINE('',#1766,#216);
#139=LINE('',#1768,#217);
#140=LINE('',#1770,#218);
#141=LINE('',#1772,#219);
#142=LINE('',#1773,#220);
#143=LINE('',#1775,#221);
#144=LINE('',#1776,#222);
#145=LINE('',#1778,#223);
#146=LINE('',#1780,#224);
#147=LINE('',#1782,#225);
#148=LINE('',#1784,#226);
#149=LINE('',#1786,#227);
#150=LINE('',#1788,#228);
#151=LINE('',#1790,#229);
#152=LINE('',#1792,#230);
#153=LINE('',#1794,#231);
#154=LINE('',#1795,#232);
#155=LINE('',#1797,#233);
#156=LINE('',#1798,#234);
#157=LINE('',#1800,#235);
#158=LINE('',#1801,#236);
#159=LINE('',#1803,#237);
#160=LINE('',#1805,#238);
#161=LINE('',#1807,#239);
#162=LINE('',#1809,#240);
#163=LINE('',#1810,#241);
#164=LINE('',#1812,#242);
#165=LINE('',#1814,#243);
#166=LINE('',#1815,#244);
#167=LINE('',#1817,#245);
#168=LINE('',#1819,#246);
#169=LINE('',#1821,#247);
#170=LINE('',#1825,#248);
#171=LINE('',#1832,#249);
#172=LINE('',#1839,#250);
#173=VECTOR('',#1210,1.);
#174=VECTOR('',#1213,1.);
#175=VECTOR('',#1214,1.);
#176=VECTOR('',#1245,1.);
#177=VECTOR('',#1246,1.);
#178=VECTOR('',#1251,1.);
#179=VECTOR('',#1252,1.);
#180=VECTOR('',#1257,1.);
#181=VECTOR('',#1258,1.);
#182=VECTOR('',#1263,1.);
#183=VECTOR('',#1264,1.);
#184=VECTOR('',#1269,1.);
#185=VECTOR('',#1270,1.);
#186=VECTOR('',#1275,1.);
#187=VECTOR('',#1276,1.);
#188=VECTOR('',#1281,1.);
#189=VECTOR('',#1282,1.);
#190=VECTOR('',#1287,1.);
#191=VECTOR('',#1288,1.);
#192=VECTOR('',#1295,1.);
#193=VECTOR('',#1296,1.);
#194=VECTOR('',#1297,1.);
#195=VECTOR('',#1298,1.);
#196=VECTOR('',#1299,1.);
#197=VECTOR('',#1300,1.);
#198=VECTOR('',#1301,1.);
#199=VECTOR('',#1302,1.);
#200=VECTOR('',#1315,1.);
#201=VECTOR('',#1316,1.);
#202=VECTOR('',#1317,1.);
#203=VECTOR('',#1320,1.);
#204=VECTOR('',#1321,1.);
#205=VECTOR('',#1322,1.);
#206=VECTOR('',#1325,1.);
#207=VECTOR('',#1326,1.);
#208=VECTOR('',#1329,1.);
#209=VECTOR('',#1330,1.);
#210=VECTOR('',#1333,1.);
#211=VECTOR('',#1334,1.);
#212=VECTOR('',#1337,1.);
#213=VECTOR('',#1338,1.);
#214=VECTOR('',#1339,1.);
#215=VECTOR('',#1340,1.);
#216=VECTOR('',#1343,1.);
#217=VECTOR('',#1344,1.);
#218=VECTOR('',#1345,1.);
#219=VECTOR('',#1348,1.);
#220=VECTOR('',#1349,1.);
#221=VECTOR('',#1352,1.);
#222=VECTOR('',#1353,1.);
#223=VECTOR('',#1356,1.);
#224=VECTOR('',#1359,1.);
#225=VECTOR('',#1362,1.);
#226=VECTOR('',#1363,1.);
#227=VECTOR('',#1364,1.);
#228=VECTOR('',#1367,1.);
#229=VECTOR('',#1368,1.);
#230=VECTOR('',#1369,1.);
#231=VECTOR('',#1372,1.);
#232=VECTOR('',#1373,1.);
#233=VECTOR('',#1376,1.);
#234=VECTOR('',#1377,1.);
#235=VECTOR('',#1380,1.);
#236=VECTOR('',#1381,1.);
#237=VECTOR('',#1384,1.);
#238=VECTOR('',#1385,1.);
#239=VECTOR('',#1386,1.);
#240=VECTOR('',#1389,1.);
#241=VECTOR('',#1390,1.);
#242=VECTOR('',#1391,1.);
#243=VECTOR('',#1394,1.);
#244=VECTOR('',#1395,1.);
#245=VECTOR('',#1398,1.);
#246=VECTOR('',#1401,1.);
#247=VECTOR('',#1404,1.);
#248=VECTOR('',#1411,1.);
#249=VECTOR('',#1424,1.);
#250=VECTOR('',#1437,1.);
#251=ADVANCED_FACE('',(#319),#309,.T.);
#252=ADVANCED_FACE('',(#320),#310,.T.);
#253=ADVANCED_FACE('',(#321),#311,.T.);
#254=ADVANCED_FACE('',(#322),#312,.T.);
#255=ADVANCED_FACE('',(#323),#49,.F.);
#256=ADVANCED_FACE('',(#324),#313,.F.);
#257=ADVANCED_FACE('',(#325),#314,.F.);
#258=ADVANCED_FACE('',(#326),#315,.F.);
#259=ADVANCED_FACE('',(#327),#316,.F.);
#260=ADVANCED_FACE('',(#328),#50,.F.);
#261=ADVANCED_FACE('',(#329),#51,.F.);
#262=ADVANCED_FACE('',(#330),#52,.F.);
#263=ADVANCED_FACE('',(#331),#53,.F.);
#264=ADVANCED_FACE('',(#332),#54,.F.);
#265=ADVANCED_FACE('',(#333),#55,.F.);
#266=ADVANCED_FACE('',(#334),#56,.F.);
#267=ADVANCED_FACE('',(#335),#57,.F.);
#268=ADVANCED_FACE('',(#336),#58,.T.);
#269=ADVANCED_FACE('',(#36,#37,#38,#39,#40),#59,.T.);
#270=ADVANCED_FACE('',(#41,#42),#317,.T.);
#271=ADVANCED_FACE('',(#43,#44),#35,.T.);
#272=ADVANCED_FACE('',(#45,#46),#34,.T.);
#273=ADVANCED_FACE('',(#337),#60,.F.);
#274=ADVANCED_FACE('',(#338),#61,.F.);
#275=ADVANCED_FACE('',(#339),#62,.F.);
#276=ADVANCED_FACE('',(#340),#63,.T.);
#277=ADVANCED_FACE('',(#341),#64,.F.);
#278=ADVANCED_FACE('',(#342),#65,.F.);
#279=ADVANCED_FACE('',(#343),#66,.F.);
#280=ADVANCED_FACE('',(#344),#67,.F.);
#281=ADVANCED_FACE('',(#345),#68,.F.);
#282=ADVANCED_FACE('',(#346),#69,.T.);
#283=ADVANCED_FACE('',(#347),#70,.F.);
#284=ADVANCED_FACE('',(#348),#71,.F.);
#285=ADVANCED_FACE('',(#349),#72,.F.);
#286=ADVANCED_FACE('',(#350),#73,.F.);
#287=ADVANCED_FACE('',(#351),#74,.T.);
#288=ADVANCED_FACE('',(#352),#75,.F.);
#289=ADVANCED_FACE('',(#353),#76,.F.);
#290=ADVANCED_FACE('',(#354),#77,.F.);
#291=ADVANCED_FACE('',(#355),#78,.F.);
#292=ADVANCED_FACE('',(#356),#79,.T.);
#293=ADVANCED_FACE('',(#357),#80,.F.);
#294=ADVANCED_FACE('',(#358),#81,.T.);
#295=ADVANCED_FACE('',(#359),#82,.T.);
#296=ADVANCED_FACE('',(#360),#83,.T.);
#297=ADVANCED_FACE('',(#361),#84,.T.);
#298=ADVANCED_FACE('',(#47,#48),#318,.T.);
#299=ADVANCED_FACE('',(#362),#85,.F.);
#300=ADVANCED_FACE('',(#363),#86,.F.);
#301=ADVANCED_FACE('',(#364),#87,.F.);
#302=ADVANCED_FACE('',(#365),#88,.F.);
#303=ADVANCED_FACE('',(#366),#89,.F.);
#304=ADVANCED_FACE('',(#367),#90,.F.);
#305=ADVANCED_FACE('',(#368),#91,.F.);
#306=ADVANCED_FACE('',(#369),#92,.F.);
#307=ADVANCED_FACE('',(#370),#93,.F.);
#308=ADVANCED_FACE('',(#371),#94,.F.);
#309=CONICAL_SURFACE('',#1051,9.16666666666666,15.3151649157723);
#310=CONICAL_SURFACE('',#1058,9.16666666666666,15.3151649157723);
#311=CONICAL_SURFACE('',#1065,9.16666666666666,15.3151649157723);
#312=CONICAL_SURFACE('',#1072,9.16666666666666,15.3151649157723);
#313=CONICAL_SURFACE('',#1077,25.4874184757341,1.99999999999988);
#314=CONICAL_SURFACE('',#1081,25.4874184757341,1.99999999999988);
#315=CONICAL_SURFACE('',#1084,25.4874184757341,1.99999999999988);
#316=CONICAL_SURFACE('',#1087,25.4874184757341,1.99999999999988);
#317=CONICAL_SURFACE('',#1109,27.4887732185564,0.00813746445063915);
#318=CONICAL_SURFACE('',#1141,26.8983102705427,1.99999999999984);
#319=FACE_OUTER_BOUND('',#372,.T.);
#320=FACE_OUTER_BOUND('',#373,.T.);
#321=FACE_OUTER_BOUND('',#374,.T.);
#322=FACE_OUTER_BOUND('',#375,.T.);
#323=FACE_OUTER_BOUND('',#376,.T.);
#324=FACE_OUTER_BOUND('',#377,.T.);
#325=FACE_OUTER_BOUND('',#378,.T.);
#326=FACE_OUTER_BOUND('',#379,.T.);
#327=FACE_OUTER_BOUND('',#380,.T.);
#328=FACE_OUTER_BOUND('',#381,.T.);
#329=FACE_OUTER_BOUND('',#382,.T.);
#330=FACE_OUTER_BOUND('',#383,.T.);
#331=FACE_OUTER_BOUND('',#384,.T.);
#332=FACE_OUTER_BOUND('',#385,.T.);
#333=FACE_OUTER_BOUND('',#386,.T.);
#334=FACE_OUTER_BOUND('',#387,.T.);
#335=FACE_OUTER_BOUND('',#388,.T.);
#336=FACE_OUTER_BOUND('',#389,.T.);
#337=FACE_OUTER_BOUND('',#401,.T.);
#338=FACE_OUTER_BOUND('',#402,.T.);
#339=FACE_OUTER_BOUND('',#403,.T.);
#340=FACE_OUTER_BOUND('',#404,.T.);
#341=FACE_OUTER_BOUND('',#405,.T.);
#342=FACE_OUTER_BOUND('',#406,.T.);
#343=FACE_OUTER_BOUND('',#407,.T.);
#344=FACE_OUTER_BOUND('',#408,.T.);
#345=FACE_OUTER_BOUND('',#409,.T.);
#346=FACE_OUTER_BOUND('',#410,.T.);
#347=FACE_OUTER_BOUND('',#411,.T.);
#348=FACE_OUTER_BOUND('',#412,.T.);
#349=FACE_OUTER_BOUND('',#413,.T.);
#350=FACE_OUTER_BOUND('',#414,.T.);
#351=FACE_OUTER_BOUND('',#415,.T.);
#352=FACE_OUTER_BOUND('',#416,.T.);
#353=FACE_OUTER_BOUND('',#417,.T.);
#354=FACE_OUTER_BOUND('',#418,.T.);
#355=FACE_OUTER_BOUND('',#419,.T.);
#356=FACE_OUTER_BOUND('',#420,.T.);
#357=FACE_OUTER_BOUND('',#421,.T.);
#358=FACE_OUTER_BOUND('',#422,.T.);
#359=FACE_OUTER_BOUND('',#423,.T.);
#360=FACE_OUTER_BOUND('',#424,.T.);
#361=FACE_OUTER_BOUND('',#425,.T.);
#362=FACE_OUTER_BOUND('',#428,.T.);
#363=FACE_OUTER_BOUND('',#429,.T.);
#364=FACE_OUTER_BOUND('',#430,.T.);
#365=FACE_OUTER_BOUND('',#431,.T.);
#366=FACE_OUTER_BOUND('',#432,.T.);
#367=FACE_OUTER_BOUND('',#433,.T.);
#368=FACE_OUTER_BOUND('',#434,.T.);
#369=FACE_OUTER_BOUND('',#435,.T.);
#370=FACE_OUTER_BOUND('',#436,.T.);
#371=FACE_OUTER_BOUND('',#437,.T.);
#372=EDGE_LOOP('',(#466,#467,#468,#469,#470,#471,#472,#473));
#373=EDGE_LOOP('',(#474,#475,#476,#477,#478,#479,#480,#481));
#374=EDGE_LOOP('',(#482,#483,#484,#485,#486,#487,#488,#489));
#375=EDGE_LOOP('',(#490,#491,#492,#493,#494,#495,#496,#497));
#376=EDGE_LOOP('',(#498,#499,#500,#501));
#377=EDGE_LOOP('',(#502,#503,#504,#505,#506));
#378=EDGE_LOOP('',(#507,#508,#509,#510,#511));
#379=EDGE_LOOP('',(#512,#513,#514,#515));
#380=EDGE_LOOP('',(#516,#517,#518,#519));
#381=EDGE_LOOP('',(#520,#521,#522));
#382=EDGE_LOOP('',(#523,#524,#525));
#383=EDGE_LOOP('',(#526,#527,#528));
#384=EDGE_LOOP('',(#529,#530,#531));
#385=EDGE_LOOP('',(#532,#533,#534));
#386=EDGE_LOOP('',(#535,#536,#537));
#387=EDGE_LOOP('',(#538,#539,#540));
#388=EDGE_LOOP('',(#541,#542,#543));
#389=EDGE_LOOP('',(#544));
#390=EDGE_LOOP('',(#545,#546,#547,#548));
#391=EDGE_LOOP('',(#549,#550,#551,#552));
#392=EDGE_LOOP('',(#553,#554,#555,#556));
#393=EDGE_LOOP('',(#557,#558,#559,#560));
#394=EDGE_LOOP('',(#561));
#395=EDGE_LOOP('',(#562));
#396=EDGE_LOOP('',(#563,#564,#565,#566,#567,#568,#569,#570));
#397=EDGE_LOOP('',(#571));
#398=EDGE_LOOP('',(#572));
#399=EDGE_LOOP('',(#573));
#400=EDGE_LOOP('',(#574));
#401=EDGE_LOOP('',(#575,#576,#577,#578));
#402=EDGE_LOOP('',(#579,#580,#581,#582));
#403=EDGE_LOOP('',(#583,#584,#585,#586,#587,#588,#589));
#404=EDGE_LOOP('',(#590,#591,#592,#593,#594,#595,#596,#597));
#405=EDGE_LOOP('',(#598,#599,#600,#601,#602,#603,#604,#605));
#406=EDGE_LOOP('',(#606,#607,#608,#609,#610));
#407=EDGE_LOOP('',(#611,#612,#613,#614));
#408=EDGE_LOOP('',(#615,#616,#617,#618));
#409=EDGE_LOOP('',(#619,#620,#621,#622,#623,#624,#625));
#410=EDGE_LOOP('',(#626,#627,#628,#629));
#411=EDGE_LOOP('',(#630,#631,#632,#633,#634));
#412=EDGE_LOOP('',(#635,#636,#637,#638));
#413=EDGE_LOOP('',(#639,#640,#641,#642));
#414=EDGE_LOOP('',(#643,#644,#645,#646,#647,#648,#649));
#415=EDGE_LOOP('',(#650,#651,#652,#653,#654,#655,#656,#657));
#416=EDGE_LOOP('',(#658,#659,#660,#661,#662,#663,#664,#665));
#417=EDGE_LOOP('',(#666,#667,#668,#669));
#418=EDGE_LOOP('',(#670,#671,#672,#673,#674));
#419=EDGE_LOOP('',(#675,#676,#677,#678,#679,#680,#681));
#420=EDGE_LOOP('',(#682,#683,#684,#685,#686));
#421=EDGE_LOOP('',(#687,#688,#689,#690));
#422=EDGE_LOOP('',(#691,#692,#693,#694,#695,#696,#697));
#423=EDGE_LOOP('',(#698,#699,#700,#701,#702,#703,#704));
#424=EDGE_LOOP('',(#705,#706,#707,#708));
#425=EDGE_LOOP('',(#709,#710,#711,#712));
#426=EDGE_LOOP('',(#713,#714,#715,#716,#717,#718,#719,#720,#721,#722,#723,
#724));
#427=EDGE_LOOP('',(#725));
#428=EDGE_LOOP('',(#726,#727,#728,#729,#730));
#429=EDGE_LOOP('',(#731,#732,#733));
#430=EDGE_LOOP('',(#734,#735,#736,#737));
#431=EDGE_LOOP('',(#738,#739,#740));
#432=EDGE_LOOP('',(#741,#742,#743));
#433=EDGE_LOOP('',(#744,#745,#746,#747));
#434=EDGE_LOOP('',(#748,#749,#750,#751,#752));
#435=EDGE_LOOP('',(#753,#754,#755));
#436=EDGE_LOOP('',(#756,#757,#758));
#437=EDGE_LOOP('',(#759,#760,#761));
#438=ELLIPSE('',#1047,52.1060594197708,0.908171030261909);
#439=ELLIPSE('',#1049,52.1060594197693,0.908171030261884);
#440=ELLIPSE('',#1055,52.1060594197693,0.908171030261884);
#441=ELLIPSE('',#1057,52.1060594197708,0.908171030261909);
#442=ELLIPSE('',#1062,52.1060594197708,0.908171030261909);
#443=ELLIPSE('',#1064,52.1060594197693,0.908171030261884);
#444=ELLIPSE('',#1069,52.1060594197693,0.908171030261884);
#445=ELLIPSE('',#1071,52.1060594197708,0.908171030261909);
#446=B_SPLINE_CURVE_WITH_KNOTS('',3,(#1450,#1451,#1452,#1453),
 .UNSPECIFIED.,.F.,.F.,(4,4),(0.,1.),.UNSPECIFIED.);
#447=B_SPLINE_CURVE_WITH_KNOTS('',3,(#1465,#1466,#1467,#1468),
 .UNSPECIFIED.,.F.,.F.,(4,4),(0.,1.),.UNSPECIFIED.);
#448=B_SPLINE_CURVE_WITH_KNOTS('',3,(#1473,#1474,#1475,#1476),
 .UNSPECIFIED.,.F.,.F.,(4,4),(0.,1.),.UNSPECIFIED.);
#449=B_SPLINE_CURVE_WITH_KNOTS('',3,(#1480,#1481,#1482,#1483),
 .UNSPECIFIED.,.F.,.F.,(4,4),(0.,1.),.UNSPECIFIED.);
#450=B_SPLINE_CURVE_WITH_KNOTS('',3,(#1496,#1497,#1498,#1499),
 .UNSPECIFIED.,.F.,.F.,(4,4),(0.,1.),.UNSPECIFIED.);
#451=B_SPLINE_CURVE_WITH_KNOTS('',3,(#1503,#1504,#1505,#1506),
 .UNSPECIFIED.,.F.,.F.,(4,4),(0.,1.),.UNSPECIFIED.);
#452=B_SPLINE_CURVE_WITH_KNOTS('',3,(#1519,#1520,#1521,#1522),
 .UNSPECIFIED.,.F.,.F.,(4,4),(0.,1.),.UNSPECIFIED.);
#453=B_SPLINE_CURVE_WITH_KNOTS('',3,(#1526,#1527,#1528,#1529),
 .UNSPECIFIED.,.F.,.F.,(4,4),(0.,1.),.UNSPECIFIED.);
#454=B_SPLINE_CURVE_WITH_KNOTS('',3,(#1548,#1549,#1550,#1551),
 .UNSPECIFIED.,.F.,.F.,(4,4),(0.,1.),.UNSPECIFIED.);
#455=B_SPLINE_CURVE_WITH_KNOTS('',3,(#1555,#1556,#1557,#1558,#1559,#1560,
#1561),.UNSPECIFIED.,.F.,.F.,(4,3,4),(0.,0.979430742837861,1.),
 .UNSPECIFIED.);
#456=B_SPLINE_CURVE_WITH_KNOTS('',3,(#1568,#1569,#1570,#1571),
 .UNSPECIFIED.,.F.,.F.,(4,4),(0.,1.),.UNSPECIFIED.);
#457=B_SPLINE_CURVE_WITH_KNOTS('',3,(#1575,#1576,#1577,#1578,#1579,#1580,
#1581),.UNSPECIFIED.,.F.,.F.,(4,3,4),(0.,0.980095779016559,1.),
 .UNSPECIFIED.);
#458=B_SPLINE_CURVE_WITH_KNOTS('',3,(#1588,#1589,#1590,#1591),
 .UNSPECIFIED.,.F.,.F.,(4,4),(0.,1.),.UNSPECIFIED.);
#459=B_SPLINE_CURVE_WITH_KNOTS('',3,(#1595,#1596,#1597,#1598,#1599,#1600,
#1601),.UNSPECIFIED.,.F.,.F.,(4,3,4),(0.,0.980828779388275,1.),
 .UNSPECIFIED.);
#460=B_SPLINE_CURVE_WITH_KNOTS('',3,(#1606,#1607,#1608,#1609),
 .UNSPECIFIED.,.F.,.F.,(4,4),(0.,1.),.UNSPECIFIED.);
#461=B_SPLINE_CURVE_WITH_KNOTS('',3,(#1613,#1614,#1615,#1616,#1617,#1618,
#1619),.UNSPECIFIED.,.F.,.F.,(4,3,4),(0.,0.980164241363656,1.),
 .UNSPECIFIED.);
#462=B_SPLINE_CURVE_WITH_KNOTS('',3,(#1689,#1690,#1691,#1692),
 .UNSPECIFIED.,.F.,.F.,(4,4),(0.,1.),.UNSPECIFIED.);
#463=B_SPLINE_CURVE_WITH_KNOTS('',3,(#1693,#1694,#1695,#1696),
 .UNSPECIFIED.,.F.,.F.,(4,4),(0.,1.),.UNSPECIFIED.);
#464=B_SPLINE_CURVE_WITH_KNOTS('',3,(#1697,#1698,#1699,#1700),
 .UNSPECIFIED.,.F.,.F.,(4,4),(0.,1.),.UNSPECIFIED.);
#465=B_SPLINE_CURVE_WITH_KNOTS('',3,(#1701,#1702,#1703,#1704),
 .UNSPECIFIED.,.F.,.F.,(4,4),(0.,1.),.UNSPECIFIED.);
#466=ORIENTED_EDGE('',*,*,#854,.F.);
#467=ORIENTED_EDGE('',*,*,#855,.T.);
#468=ORIENTED_EDGE('',*,*,#856,.T.);
#469=ORIENTED_EDGE('',*,*,#857,.T.);
#470=ORIENTED_EDGE('',*,*,#858,.T.);
#471=ORIENTED_EDGE('',*,*,#859,.T.);
#472=ORIENTED_EDGE('',*,*,#860,.T.);
#473=ORIENTED_EDGE('',*,*,#861,.T.);
#474=ORIENTED_EDGE('',*,*,#862,.T.);
#475=ORIENTED_EDGE('',*,*,#863,.T.);
#476=ORIENTED_EDGE('',*,*,#864,.F.);
#477=ORIENTED_EDGE('',*,*,#865,.F.);
#478=ORIENTED_EDGE('',*,*,#866,.T.);
#479=ORIENTED_EDGE('',*,*,#867,.T.);
#480=ORIENTED_EDGE('',*,*,#868,.T.);
#481=ORIENTED_EDGE('',*,*,#869,.T.);
#482=ORIENTED_EDGE('',*,*,#870,.T.);
#483=ORIENTED_EDGE('',*,*,#871,.T.);
#484=ORIENTED_EDGE('',*,*,#872,.F.);
#485=ORIENTED_EDGE('',*,*,#873,.T.);
#486=ORIENTED_EDGE('',*,*,#874,.T.);
#487=ORIENTED_EDGE('',*,*,#875,.T.);
#488=ORIENTED_EDGE('',*,*,#876,.T.);
#489=ORIENTED_EDGE('',*,*,#877,.T.);
#490=ORIENTED_EDGE('',*,*,#878,.T.);
#491=ORIENTED_EDGE('',*,*,#879,.T.);
#492=ORIENTED_EDGE('',*,*,#880,.F.);
#493=ORIENTED_EDGE('',*,*,#881,.F.);
#494=ORIENTED_EDGE('',*,*,#882,.T.);
#495=ORIENTED_EDGE('',*,*,#883,.T.);
#496=ORIENTED_EDGE('',*,*,#884,.T.);
#497=ORIENTED_EDGE('',*,*,#885,.T.);
#498=ORIENTED_EDGE('',*,*,#886,.F.);
#499=ORIENTED_EDGE('',*,*,#887,.T.);
#500=ORIENTED_EDGE('',*,*,#888,.F.);
#501=ORIENTED_EDGE('',*,*,#889,.T.);
#502=ORIENTED_EDGE('',*,*,#887,.F.);
#503=ORIENTED_EDGE('',*,*,#890,.T.);
#504=ORIENTED_EDGE('',*,*,#891,.T.);
#505=ORIENTED_EDGE('',*,*,#892,.T.);
#506=ORIENTED_EDGE('',*,*,#893,.F.);
#507=ORIENTED_EDGE('',*,*,#894,.F.);
#508=ORIENTED_EDGE('',*,*,#895,.T.);
#509=ORIENTED_EDGE('',*,*,#896,.T.);
#510=ORIENTED_EDGE('',*,*,#897,.T.);
#511=ORIENTED_EDGE('',*,*,#898,.F.);
#512=ORIENTED_EDGE('',*,*,#899,.F.);
#513=ORIENTED_EDGE('',*,*,#900,.T.);
#514=ORIENTED_EDGE('',*,*,#901,.T.);
#515=ORIENTED_EDGE('',*,*,#902,.T.);
#516=ORIENTED_EDGE('',*,*,#903,.F.);
#517=ORIENTED_EDGE('',*,*,#904,.T.);
#518=ORIENTED_EDGE('',*,*,#905,.T.);
#519=ORIENTED_EDGE('',*,*,#906,.T.);
#520=ORIENTED_EDGE('',*,*,#907,.F.);
#521=ORIENTED_EDGE('',*,*,#908,.T.);
#522=ORIENTED_EDGE('',*,*,#909,.F.);
#523=ORIENTED_EDGE('',*,*,#910,.F.);
#524=ORIENTED_EDGE('',*,*,#911,.F.);
#525=ORIENTED_EDGE('',*,*,#912,.F.);
#526=ORIENTED_EDGE('',*,*,#913,.F.);
#527=ORIENTED_EDGE('',*,*,#914,.T.);
#528=ORIENTED_EDGE('',*,*,#915,.F.);
#529=ORIENTED_EDGE('',*,*,#916,.F.);
#530=ORIENTED_EDGE('',*,*,#917,.F.);
#531=ORIENTED_EDGE('',*,*,#918,.F.);
#532=ORIENTED_EDGE('',*,*,#919,.F.);
#533=ORIENTED_EDGE('',*,*,#920,.F.);
#534=ORIENTED_EDGE('',*,*,#921,.F.);
#535=ORIENTED_EDGE('',*,*,#922,.F.);
#536=ORIENTED_EDGE('',*,*,#923,.T.);
#537=ORIENTED_EDGE('',*,*,#924,.F.);
#538=ORIENTED_EDGE('',*,*,#925,.F.);
#539=ORIENTED_EDGE('',*,*,#926,.T.);
#540=ORIENTED_EDGE('',*,*,#927,.F.);
#541=ORIENTED_EDGE('',*,*,#928,.F.);
#542=ORIENTED_EDGE('',*,*,#929,.F.);
#543=ORIENTED_EDGE('',*,*,#930,.F.);
#544=ORIENTED_EDGE('',*,*,#931,.F.);
#545=ORIENTED_EDGE('',*,*,#932,.T.);
#546=ORIENTED_EDGE('',*,*,#872,.T.);
#547=ORIENTED_EDGE('',*,*,#933,.T.);
#548=ORIENTED_EDGE('',*,*,#901,.F.);
#549=ORIENTED_EDGE('',*,*,#934,.T.);
#550=ORIENTED_EDGE('',*,*,#864,.T.);
#551=ORIENTED_EDGE('',*,*,#935,.T.);
#552=ORIENTED_EDGE('',*,*,#905,.F.);
#553=ORIENTED_EDGE('',*,*,#936,.T.);
#554=ORIENTED_EDGE('',*,*,#854,.T.);
#555=ORIENTED_EDGE('',*,*,#937,.T.);
#556=ORIENTED_EDGE('',*,*,#891,.F.);
#557=ORIENTED_EDGE('',*,*,#880,.T.);
#558=ORIENTED_EDGE('',*,*,#938,.T.);
#559=ORIENTED_EDGE('',*,*,#896,.F.);
#560=ORIENTED_EDGE('',*,*,#939,.T.);
#561=ORIENTED_EDGE('',*,*,#940,.T.);
#562=ORIENTED_EDGE('',*,*,#941,.T.);
#563=ORIENTED_EDGE('',*,*,#942,.T.);
#564=ORIENTED_EDGE('',*,*,#876,.F.);
#565=ORIENTED_EDGE('',*,*,#943,.F.);
#566=ORIENTED_EDGE('',*,*,#884,.F.);
#567=ORIENTED_EDGE('',*,*,#944,.F.);
#568=ORIENTED_EDGE('',*,*,#858,.F.);
#569=ORIENTED_EDGE('',*,*,#945,.F.);
#570=ORIENTED_EDGE('',*,*,#868,.F.);
#571=ORIENTED_EDGE('',*,*,#946,.T.);
#572=ORIENTED_EDGE('',*,*,#941,.F.);
#573=ORIENTED_EDGE('',*,*,#931,.T.);
#574=ORIENTED_EDGE('',*,*,#946,.F.);
#575=ORIENTED_EDGE('',*,*,#877,.F.);
#576=ORIENTED_EDGE('',*,*,#947,.T.);
#577=ORIENTED_EDGE('',*,*,#948,.T.);
#578=ORIENTED_EDGE('',*,*,#949,.F.);
#579=ORIENTED_EDGE('',*,*,#867,.F.);
#580=ORIENTED_EDGE('',*,*,#950,.F.);
#581=ORIENTED_EDGE('',*,*,#951,.F.);
#582=ORIENTED_EDGE('',*,*,#952,.T.);
#583=ORIENTED_EDGE('',*,*,#942,.F.);
#584=ORIENTED_EDGE('',*,*,#952,.F.);
#585=ORIENTED_EDGE('',*,*,#953,.F.);
#586=ORIENTED_EDGE('',*,*,#911,.T.);
#587=ORIENTED_EDGE('',*,*,#909,.T.);
#588=ORIENTED_EDGE('',*,*,#954,.T.);
#589=ORIENTED_EDGE('',*,*,#947,.F.);
#590=ORIENTED_EDGE('',*,*,#951,.T.);
#591=ORIENTED_EDGE('',*,*,#955,.T.);
#592=ORIENTED_EDGE('',*,*,#865,.T.);
#593=ORIENTED_EDGE('',*,*,#934,.F.);
#594=ORIENTED_EDGE('',*,*,#904,.F.);
#595=ORIENTED_EDGE('',*,*,#956,.T.);
#596=ORIENTED_EDGE('',*,*,#912,.T.);
#597=ORIENTED_EDGE('',*,*,#953,.T.);
#598=ORIENTED_EDGE('',*,*,#948,.F.);
#599=ORIENTED_EDGE('',*,*,#954,.F.);
#600=ORIENTED_EDGE('',*,*,#908,.F.);
#601=ORIENTED_EDGE('',*,*,#957,.F.);
#602=ORIENTED_EDGE('',*,*,#902,.F.);
#603=ORIENTED_EDGE('',*,*,#933,.F.);
#604=ORIENTED_EDGE('',*,*,#871,.F.);
#605=ORIENTED_EDGE('',*,*,#958,.T.);
#606=ORIENTED_EDGE('',*,*,#885,.F.);
#607=ORIENTED_EDGE('',*,*,#959,.T.);
#608=ORIENTED_EDGE('',*,*,#960,.T.);
#609=ORIENTED_EDGE('',*,*,#961,.F.);
#610=ORIENTED_EDGE('',*,*,#962,.F.);
#611=ORIENTED_EDGE('',*,*,#875,.F.);
#612=ORIENTED_EDGE('',*,*,#963,.F.);
#613=ORIENTED_EDGE('',*,*,#964,.F.);
#614=ORIENTED_EDGE('',*,*,#965,.T.);
#615=ORIENTED_EDGE('',*,*,#966,.F.);
#616=ORIENTED_EDGE('',*,*,#961,.T.);
#617=ORIENTED_EDGE('',*,*,#967,.T.);
#618=ORIENTED_EDGE('',*,*,#898,.T.);
#619=ORIENTED_EDGE('',*,*,#943,.T.);
#620=ORIENTED_EDGE('',*,*,#965,.F.);
#621=ORIENTED_EDGE('',*,*,#968,.F.);
#622=ORIENTED_EDGE('',*,*,#917,.T.);
#623=ORIENTED_EDGE('',*,*,#915,.T.);
#624=ORIENTED_EDGE('',*,*,#969,.T.);
#625=ORIENTED_EDGE('',*,*,#959,.F.);
#626=ORIENTED_EDGE('',*,*,#964,.T.);
#627=ORIENTED_EDGE('',*,*,#970,.T.);
#628=ORIENTED_EDGE('',*,*,#918,.T.);
#629=ORIENTED_EDGE('',*,*,#968,.T.);
#630=ORIENTED_EDGE('',*,*,#960,.F.);
#631=ORIENTED_EDGE('',*,*,#969,.F.);
#632=ORIENTED_EDGE('',*,*,#914,.F.);
#633=ORIENTED_EDGE('',*,*,#971,.F.);
#634=ORIENTED_EDGE('',*,*,#967,.F.);
#635=ORIENTED_EDGE('',*,*,#859,.F.);
#636=ORIENTED_EDGE('',*,*,#972,.T.);
#637=ORIENTED_EDGE('',*,*,#973,.T.);
#638=ORIENTED_EDGE('',*,*,#974,.F.);
#639=ORIENTED_EDGE('',*,*,#883,.F.);
#640=ORIENTED_EDGE('',*,*,#975,.F.);
#641=ORIENTED_EDGE('',*,*,#976,.F.);
#642=ORIENTED_EDGE('',*,*,#977,.T.);
#643=ORIENTED_EDGE('',*,*,#944,.T.);
#644=ORIENTED_EDGE('',*,*,#977,.F.);
#645=ORIENTED_EDGE('',*,*,#978,.F.);
#646=ORIENTED_EDGE('',*,*,#920,.T.);
#647=ORIENTED_EDGE('',*,*,#924,.T.);
#648=ORIENTED_EDGE('',*,*,#979,.T.);
#649=ORIENTED_EDGE('',*,*,#972,.F.);
#650=ORIENTED_EDGE('',*,*,#976,.T.);
#651=ORIENTED_EDGE('',*,*,#980,.T.);
#652=ORIENTED_EDGE('',*,*,#881,.T.);
#653=ORIENTED_EDGE('',*,*,#939,.F.);
#654=ORIENTED_EDGE('',*,*,#895,.F.);
#655=ORIENTED_EDGE('',*,*,#981,.T.);
#656=ORIENTED_EDGE('',*,*,#921,.T.);
#657=ORIENTED_EDGE('',*,*,#978,.T.);
#658=ORIENTED_EDGE('',*,*,#973,.F.);
#659=ORIENTED_EDGE('',*,*,#979,.F.);
#660=ORIENTED_EDGE('',*,*,#923,.F.);
#661=ORIENTED_EDGE('',*,*,#982,.F.);
#662=ORIENTED_EDGE('',*,*,#892,.F.);
#663=ORIENTED_EDGE('',*,*,#937,.F.);
#664=ORIENTED_EDGE('',*,*,#861,.F.);
#665=ORIENTED_EDGE('',*,*,#983,.T.);
#666=ORIENTED_EDGE('',*,*,#869,.F.);
#667=ORIENTED_EDGE('',*,*,#984,.T.);
#668=ORIENTED_EDGE('',*,*,#985,.T.);
#669=ORIENTED_EDGE('',*,*,#986,.F.);
#670=ORIENTED_EDGE('',*,*,#857,.F.);
#671=ORIENTED_EDGE('',*,*,#987,.F.);
#672=ORIENTED_EDGE('',*,*,#889,.F.);
#673=ORIENTED_EDGE('',*,*,#988,.F.);
#674=ORIENTED_EDGE('',*,*,#989,.T.);
#675=ORIENTED_EDGE('',*,*,#945,.T.);
#676=ORIENTED_EDGE('',*,*,#989,.F.);
#677=ORIENTED_EDGE('',*,*,#990,.F.);
#678=ORIENTED_EDGE('',*,*,#929,.T.);
#679=ORIENTED_EDGE('',*,*,#927,.T.);
#680=ORIENTED_EDGE('',*,*,#991,.T.);
#681=ORIENTED_EDGE('',*,*,#984,.F.);
#682=ORIENTED_EDGE('',*,*,#988,.T.);
#683=ORIENTED_EDGE('',*,*,#888,.T.);
#684=ORIENTED_EDGE('',*,*,#992,.T.);
#685=ORIENTED_EDGE('',*,*,#930,.T.);
#686=ORIENTED_EDGE('',*,*,#990,.T.);
#687=ORIENTED_EDGE('',*,*,#985,.F.);
#688=ORIENTED_EDGE('',*,*,#991,.F.);
#689=ORIENTED_EDGE('',*,*,#926,.F.);
#690=ORIENTED_EDGE('',*,*,#993,.F.);
#691=ORIENTED_EDGE('',*,*,#956,.F.);
#692=ORIENTED_EDGE('',*,*,#903,.T.);
#693=ORIENTED_EDGE('',*,*,#994,.F.);
#694=ORIENTED_EDGE('',*,*,#862,.F.);
#695=ORIENTED_EDGE('',*,*,#986,.T.);
#696=ORIENTED_EDGE('',*,*,#993,.T.);
#697=ORIENTED_EDGE('',*,*,#995,.F.);
#698=ORIENTED_EDGE('',*,*,#996,.F.);
#699=ORIENTED_EDGE('',*,*,#970,.F.);
#700=ORIENTED_EDGE('',*,*,#963,.T.);
#701=ORIENTED_EDGE('',*,*,#874,.F.);
#702=ORIENTED_EDGE('',*,*,#997,.F.);
#703=ORIENTED_EDGE('',*,*,#899,.T.);
#704=ORIENTED_EDGE('',*,*,#957,.T.);
#705=ORIENTED_EDGE('',*,*,#894,.T.);
#706=ORIENTED_EDGE('',*,*,#971,.T.);
#707=ORIENTED_EDGE('',*,*,#998,.F.);
#708=ORIENTED_EDGE('',*,*,#981,.F.);
#709=ORIENTED_EDGE('',*,*,#893,.T.);
#710=ORIENTED_EDGE('',*,*,#982,.T.);
#711=ORIENTED_EDGE('',*,*,#999,.F.);
#712=ORIENTED_EDGE('',*,*,#992,.F.);
#713=ORIENTED_EDGE('',*,*,#919,.T.);
#714=ORIENTED_EDGE('',*,*,#998,.T.);
#715=ORIENTED_EDGE('',*,*,#913,.T.);
#716=ORIENTED_EDGE('',*,*,#916,.T.);
#717=ORIENTED_EDGE('',*,*,#996,.T.);
#718=ORIENTED_EDGE('',*,*,#907,.T.);
#719=ORIENTED_EDGE('',*,*,#910,.T.);
#720=ORIENTED_EDGE('',*,*,#995,.T.);
#721=ORIENTED_EDGE('',*,*,#925,.T.);
#722=ORIENTED_EDGE('',*,*,#928,.T.);
#723=ORIENTED_EDGE('',*,*,#999,.T.);
#724=ORIENTED_EDGE('',*,*,#922,.T.);
#725=ORIENTED_EDGE('',*,*,#940,.F.);
#726=ORIENTED_EDGE('',*,*,#855,.F.);
#727=ORIENTED_EDGE('',*,*,#936,.F.);
#728=ORIENTED_EDGE('',*,*,#890,.F.);
#729=ORIENTED_EDGE('',*,*,#886,.T.);
#730=ORIENTED_EDGE('',*,*,#1000,.T.);
#731=ORIENTED_EDGE('',*,*,#856,.F.);
#732=ORIENTED_EDGE('',*,*,#1000,.F.);
#733=ORIENTED_EDGE('',*,*,#987,.T.);
#734=ORIENTED_EDGE('',*,*,#863,.F.);
#735=ORIENTED_EDGE('',*,*,#994,.T.);
#736=ORIENTED_EDGE('',*,*,#906,.F.);
#737=ORIENTED_EDGE('',*,*,#935,.F.);
#738=ORIENTED_EDGE('',*,*,#955,.F.);
#739=ORIENTED_EDGE('',*,*,#950,.T.);
#740=ORIENTED_EDGE('',*,*,#866,.F.);
#741=ORIENTED_EDGE('',*,*,#870,.F.);
#742=ORIENTED_EDGE('',*,*,#949,.T.);
#743=ORIENTED_EDGE('',*,*,#958,.F.);
#744=ORIENTED_EDGE('',*,*,#873,.F.);
#745=ORIENTED_EDGE('',*,*,#932,.F.);
#746=ORIENTED_EDGE('',*,*,#900,.F.);
#747=ORIENTED_EDGE('',*,*,#997,.T.);
#748=ORIENTED_EDGE('',*,*,#879,.F.);
#749=ORIENTED_EDGE('',*,*,#1001,.T.);
#750=ORIENTED_EDGE('',*,*,#966,.T.);
#751=ORIENTED_EDGE('',*,*,#897,.F.);
#752=ORIENTED_EDGE('',*,*,#938,.F.);
#753=ORIENTED_EDGE('',*,*,#878,.F.);
#754=ORIENTED_EDGE('',*,*,#962,.T.);
#755=ORIENTED_EDGE('',*,*,#1001,.F.);
#756=ORIENTED_EDGE('',*,*,#980,.F.);
#757=ORIENTED_EDGE('',*,*,#975,.T.);
#758=ORIENTED_EDGE('',*,*,#882,.F.);
#759=ORIENTED_EDGE('',*,*,#860,.F.);
#760=ORIENTED_EDGE('',*,*,#974,.T.);
#761=ORIENTED_EDGE('',*,*,#983,.F.);
#762=VERTEX_POINT('',#1448);
#763=VERTEX_POINT('',#1449);
#764=VERTEX_POINT('',#1454);
#765=VERTEX_POINT('',#1456);
#766=VERTEX_POINT('',#1458);
#767=VERTEX_POINT('',#1460);
#768=VERTEX_POINT('',#1462);
#769=VERTEX_POINT('',#1464);
#770=VERTEX_POINT('',#1471);
#771=VERTEX_POINT('',#1472);
#772=VERTEX_POINT('',#1477);
#773=VERTEX_POINT('',#1479);
#774=VERTEX_POINT('',#1484);
#775=VERTEX_POINT('',#1486);
#776=VERTEX_POINT('',#1488);
#777=VERTEX_POINT('',#1490);
#778=VERTEX_POINT('',#1494);
#779=VERTEX_POINT('',#1495);
#780=VERTEX_POINT('',#1500);
#781=VERTEX_POINT('',#1502);
#782=VERTEX_POINT('',#1507);
#783=VERTEX_POINT('',#1509);
#784=VERTEX_POINT('',#1511);
#785=VERTEX_POINT('',#1513);
#786=VERTEX_POINT('',#1517);
#787=VERTEX_POINT('',#1518);
#788=VERTEX_POINT('',#1523);
#789=VERTEX_POINT('',#1525);
#790=VERTEX_POINT('',#1530);
#791=VERTEX_POINT('',#1532);
#792=VERTEX_POINT('',#1534);
#793=VERTEX_POINT('',#1536);
#794=VERTEX_POINT('',#1540);
#795=VERTEX_POINT('',#1541);
#796=VERTEX_POINT('',#1543);
#797=VERTEX_POINT('',#1545);
#798=VERTEX_POINT('',#1552);
#799=VERTEX_POINT('',#1554);
#800=VERTEX_POINT('',#1562);
#801=VERTEX_POINT('',#1566);
#802=VERTEX_POINT('',#1567);
#803=VERTEX_POINT('',#1572);
#804=VERTEX_POINT('',#1574);
#805=VERTEX_POINT('',#1582);
#806=VERTEX_POINT('',#1586);
#807=VERTEX_POINT('',#1587);
#808=VERTEX_POINT('',#1592);
#809=VERTEX_POINT('',#1594);
#810=VERTEX_POINT('',#1604);
#811=VERTEX_POINT('',#1605);
#812=VERTEX_POINT('',#1610);
#813=VERTEX_POINT('',#1612);
#814=VERTEX_POINT('',#1622);
#815=VERTEX_POINT('',#1623);
#816=VERTEX_POINT('',#1625);
#817=VERTEX_POINT('',#1629);
#818=VERTEX_POINT('',#1631);
#819=VERTEX_POINT('',#1635);
#820=VERTEX_POINT('',#1636);
#821=VERTEX_POINT('',#1638);
#822=VERTEX_POINT('',#1642);
#823=VERTEX_POINT('',#1644);
#824=VERTEX_POINT('',#1648);
#825=VERTEX_POINT('',#1649);
#826=VERTEX_POINT('',#1651);
#827=VERTEX_POINT('',#1655);
#828=VERTEX_POINT('',#1657);
#829=VERTEX_POINT('',#1661);
#830=VERTEX_POINT('',#1662);
#831=VERTEX_POINT('',#1664);
#832=VERTEX_POINT('',#1668);
#833=VERTEX_POINT('',#1670);
#834=VERTEX_POINT('',#1674);
#835=VERTEX_POINT('',#1685);
#836=VERTEX_POINT('',#1688);
#837=VERTEX_POINT('',#1707);
#838=VERTEX_POINT('',#1738);
#839=VERTEX_POINT('',#1740);
#840=VERTEX_POINT('',#1744);
#841=VERTEX_POINT('',#1746);
#842=VERTEX_POINT('',#1759);
#843=VERTEX_POINT('',#1761);
#844=VERTEX_POINT('',#1763);
#845=VERTEX_POINT('',#1767);
#846=VERTEX_POINT('',#1769);
#847=VERTEX_POINT('',#1783);
#848=VERTEX_POINT('',#1785);
#849=VERTEX_POINT('',#1789);
#850=VERTEX_POINT('',#1791);
#851=VERTEX_POINT('',#1804);
#852=VERTEX_POINT('',#1806);
#853=VERTEX_POINT('',#1811);
#854=EDGE_CURVE('',#762,#763,#1002,.T.);
#855=EDGE_CURVE('',#762,#764,#446,.T.);
#856=EDGE_CURVE('',#764,#765,#1003,.T.);
#857=EDGE_CURVE('',#765,#766,#438,.T.);
#858=EDGE_CURVE('',#766,#767,#1004,.T.);
#859=EDGE_CURVE('',#767,#768,#439,.T.);
#860=EDGE_CURVE('',#768,#769,#1005,.T.);
#861=EDGE_CURVE('',#769,#763,#447,.T.);
#862=EDGE_CURVE('',#770,#771,#1006,.T.);
#863=EDGE_CURVE('',#771,#772,#448,.T.);
#864=EDGE_CURVE('',#773,#772,#1007,.T.);
#865=EDGE_CURVE('',#774,#773,#449,.T.);
#866=EDGE_CURVE('',#774,#775,#1008,.T.);
#867=EDGE_CURVE('',#775,#776,#440,.T.);
#868=EDGE_CURVE('',#776,#777,#1009,.T.);
#869=EDGE_CURVE('',#777,#770,#441,.T.);
#870=EDGE_CURVE('',#778,#779,#1010,.T.);
#871=EDGE_CURVE('',#779,#780,#450,.T.);
#872=EDGE_CURVE('',#781,#780,#1011,.T.);
#873=EDGE_CURVE('',#781,#782,#451,.T.);
#874=EDGE_CURVE('',#782,#783,#1012,.T.);
#875=EDGE_CURVE('',#783,#784,#442,.T.);
#876=EDGE_CURVE('',#784,#785,#1013,.T.);
#877=EDGE_CURVE('',#785,#778,#443,.T.);
#878=EDGE_CURVE('',#786,#787,#1014,.T.);
#879=EDGE_CURVE('',#787,#788,#452,.T.);
#880=EDGE_CURVE('',#789,#788,#1015,.T.);
#881=EDGE_CURVE('',#790,#789,#453,.T.);
#882=EDGE_CURVE('',#790,#791,#1016,.T.);
#883=EDGE_CURVE('',#791,#792,#444,.T.);
#884=EDGE_CURVE('',#792,#793,#1017,.T.);
#885=EDGE_CURVE('',#793,#786,#445,.T.);
#886=EDGE_CURVE('',#794,#795,#95,.T.);
#887=EDGE_CURVE('',#794,#796,#1018,.T.);
#888=EDGE_CURVE('',#797,#796,#96,.T.);
#889=EDGE_CURVE('',#797,#795,#97,.T.);
#890=EDGE_CURVE('',#794,#798,#454,.T.);
#891=EDGE_CURVE('',#798,#799,#1019,.T.);
#892=EDGE_CURVE('',#799,#800,#455,.T.);
#893=EDGE_CURVE('',#796,#800,#1020,.T.);
#894=EDGE_CURVE('',#801,#802,#1021,.T.);
#895=EDGE_CURVE('',#801,#803,#456,.T.);
#896=EDGE_CURVE('',#803,#804,#1022,.T.);
#897=EDGE_CURVE('',#804,#805,#457,.T.);
#898=EDGE_CURVE('',#802,#805,#1023,.T.);
#899=EDGE_CURVE('',#806,#807,#1024,.T.);
#900=EDGE_CURVE('',#806,#808,#458,.T.);
#901=EDGE_CURVE('',#808,#809,#1025,.T.);
#902=EDGE_CURVE('',#809,#807,#459,.T.);
#903=EDGE_CURVE('',#810,#811,#1026,.T.);
#904=EDGE_CURVE('',#810,#812,#460,.T.);
#905=EDGE_CURVE('',#812,#813,#1027,.T.);
#906=EDGE_CURVE('',#813,#811,#461,.T.);
#907=EDGE_CURVE('',#814,#815,#1028,.T.);
#908=EDGE_CURVE('',#814,#816,#98,.T.);
#909=EDGE_CURVE('',#815,#816,#99,.T.);
#910=EDGE_CURVE('',#815,#817,#1029,.T.);
#911=EDGE_CURVE('',#818,#815,#100,.T.);
#912=EDGE_CURVE('',#817,#818,#101,.T.);
#913=EDGE_CURVE('',#819,#820,#1030,.T.);
#914=EDGE_CURVE('',#819,#821,#102,.T.);
#915=EDGE_CURVE('',#820,#821,#103,.T.);
#916=EDGE_CURVE('',#820,#822,#1031,.T.);
#917=EDGE_CURVE('',#823,#820,#104,.T.);
#918=EDGE_CURVE('',#822,#823,#105,.T.);
#919=EDGE_CURVE('',#824,#825,#1032,.T.);
#920=EDGE_CURVE('',#826,#824,#106,.T.);
#921=EDGE_CURVE('',#825,#826,#107,.T.);
#922=EDGE_CURVE('',#827,#824,#1033,.T.);
#923=EDGE_CURVE('',#827,#828,#108,.T.);
#924=EDGE_CURVE('',#824,#828,#109,.T.);
#925=EDGE_CURVE('',#829,#830,#1034,.T.);
#926=EDGE_CURVE('',#829,#831,#110,.T.);
#927=EDGE_CURVE('',#830,#831,#111,.T.);
#928=EDGE_CURVE('',#830,#832,#1035,.T.);
#929=EDGE_CURVE('',#833,#830,#112,.T.);
#930=EDGE_CURVE('',#832,#833,#113,.T.);
#931=EDGE_CURVE('',#834,#834,#1036,.T.);
#932=EDGE_CURVE('',#808,#781,#114,.T.);
#933=EDGE_CURVE('',#780,#809,#115,.T.);
#934=EDGE_CURVE('',#812,#773,#116,.T.);
#935=EDGE_CURVE('',#772,#813,#117,.T.);
#936=EDGE_CURVE('',#798,#762,#118,.T.);
#937=EDGE_CURVE('',#763,#799,#119,.T.);
#938=EDGE_CURVE('',#788,#804,#120,.T.);
#939=EDGE_CURVE('',#803,#789,#121,.T.);
#940=EDGE_CURVE('',#835,#835,#1037,.T.);
#941=EDGE_CURVE('',#836,#836,#1038,.T.);
#942=EDGE_CURVE('',#776,#785,#462,.T.);
#943=EDGE_CURVE('',#793,#784,#463,.T.);
#944=EDGE_CURVE('',#767,#792,#464,.T.);
#945=EDGE_CURVE('',#777,#766,#465,.T.);
#946=EDGE_CURVE('',#837,#837,#1039,.T.);
#947=EDGE_CURVE('',#785,#838,#122,.T.);
#948=EDGE_CURVE('',#838,#839,#123,.T.);
#949=EDGE_CURVE('',#778,#839,#124,.T.);
#950=EDGE_CURVE('',#840,#775,#125,.T.);
#951=EDGE_CURVE('',#841,#840,#126,.T.);
#952=EDGE_CURVE('',#841,#776,#127,.T.);
#953=EDGE_CURVE('',#818,#841,#128,.T.);
#954=EDGE_CURVE('',#816,#838,#129,.T.);
#955=EDGE_CURVE('',#840,#774,#130,.T.);
#956=EDGE_CURVE('',#810,#817,#131,.T.);
#957=EDGE_CURVE('',#807,#814,#132,.T.);
#958=EDGE_CURVE('',#779,#839,#133,.T.);
#959=EDGE_CURVE('',#793,#842,#134,.T.);
#960=EDGE_CURVE('',#842,#843,#135,.T.);
#961=EDGE_CURVE('',#844,#843,#136,.T.);
#962=EDGE_CURVE('',#786,#844,#137,.T.);
#963=EDGE_CURVE('',#845,#783,#138,.T.);
#964=EDGE_CURVE('',#846,#845,#139,.T.);
#965=EDGE_CURVE('',#846,#784,#140,.T.);
#966=EDGE_CURVE('',#844,#805,#141,.T.);
#967=EDGE_CURVE('',#843,#802,#142,.T.);
#968=EDGE_CURVE('',#823,#846,#143,.T.);
#969=EDGE_CURVE('',#821,#842,#144,.T.);
#970=EDGE_CURVE('',#845,#822,#145,.T.);
#971=EDGE_CURVE('',#802,#819,#146,.T.);
#972=EDGE_CURVE('',#767,#847,#147,.T.);
#973=EDGE_CURVE('',#847,#848,#148,.T.);
#974=EDGE_CURVE('',#768,#848,#149,.T.);
#975=EDGE_CURVE('',#849,#791,#150,.T.);
#976=EDGE_CURVE('',#850,#849,#151,.T.);
#977=EDGE_CURVE('',#850,#792,#152,.T.);
#978=EDGE_CURVE('',#826,#850,#153,.T.);
#979=EDGE_CURVE('',#828,#847,#154,.T.);
#980=EDGE_CURVE('',#849,#790,#155,.T.);
#981=EDGE_CURVE('',#801,#825,#156,.T.);
#982=EDGE_CURVE('',#800,#827,#157,.T.);
#983=EDGE_CURVE('',#769,#848,#158,.T.);
#984=EDGE_CURVE('',#777,#851,#159,.T.);
#985=EDGE_CURVE('',#851,#852,#160,.T.);
#986=EDGE_CURVE('',#770,#852,#161,.T.);
#987=EDGE_CURVE('',#795,#765,#162,.T.);
#988=EDGE_CURVE('',#853,#797,#163,.T.);
#989=EDGE_CURVE('',#853,#766,#164,.T.);
#990=EDGE_CURVE('',#833,#853,#165,.T.);
#991=EDGE_CURVE('',#831,#851,#166,.T.);
#992=EDGE_CURVE('',#796,#832,#167,.T.);
#993=EDGE_CURVE('',#852,#829,#168,.T.);
#994=EDGE_CURVE('',#771,#811,#169,.T.);
#995=EDGE_CURVE('',#817,#829,#1040,.T.);
#996=EDGE_CURVE('',#822,#814,#1041,.T.);
#997=EDGE_CURVE('',#806,#782,#170,.T.);
#998=EDGE_CURVE('',#825,#819,#1042,.T.);
#999=EDGE_CURVE('',#832,#827,#1043,.T.);
#1000=EDGE_CURVE('',#795,#764,#171,.T.);
#1001=EDGE_CURVE('',#787,#844,#172,.T.);
#1002=CIRCLE('',#1045,9.16666666666666);
#1003=CIRCLE('',#1046,13.7960957242616);
#1004=CIRCLE('',#1048,27.4887732185564);
#1005=CIRCLE('',#1050,13.7960957242616);
#1006=CIRCLE('',#1052,13.7960957242616);
#1007=CIRCLE('',#1053,9.16666666666666);
#1008=CIRCLE('',#1054,13.7960957242616);
#1009=CIRCLE('',#1056,27.4887732185564);
#1010=CIRCLE('',#1059,13.7960957242616);
#1011=CIRCLE('',#1060,9.16666666666666);
#1012=CIRCLE('',#1061,13.7960957242616);
#1013=CIRCLE('',#1063,27.4887732185564);
#1014=CIRCLE('',#1066,13.7960957242616);
#1015=CIRCLE('',#1067,9.16666666666666);
#1016=CIRCLE('',#1068,13.7960957242616);
#1017=CIRCLE('',#1070,27.4887732185564);
#1018=CIRCLE('',#1073,25.4874184757341);
#1019=CIRCLE('',#1075,24.8970911819451);
#1020=CIRCLE('',#1076,25.4874184757341);
#1021=CIRCLE('',#1078,25.4874184757341);
#1022=CIRCLE('',#1079,24.8970911819451);
#1023=CIRCLE('',#1080,25.4874184757341);
#1024=CIRCLE('',#1082,25.4874184757341);
#1025=CIRCLE('',#1083,24.8970911819451);
#1026=CIRCLE('',#1085,25.4874184757341);
#1027=CIRCLE('',#1086,24.8970911819451);
#1028=CIRCLE('',#1088,27.4886375643317);
#1029=CIRCLE('',#1090,27.4886375643317);
#1030=CIRCLE('',#1092,27.4886375643317);
#1031=CIRCLE('',#1094,27.4886375643317);
#1032=CIRCLE('',#1096,27.4886375643317);
#1033=CIRCLE('',#1098,27.4886375643317);
#1034=CIRCLE('',#1100,27.4886375643317);
#1035=CIRCLE('',#1102,27.4886375643317);
#1036=CIRCLE('',#1104,14.2230773783617);
#1037=CIRCLE('',#1106,26.8983102705427);
#1038=CIRCLE('',#1108,27.5);
#1039=CIRCLE('',#1110,18.6538477393125);
#1040=CIRCLE('',#1133,27.4886375643317);
#1041=CIRCLE('',#1135,27.4886375643317);
#1042=CIRCLE('',#1137,27.4886375643317);
#1043=CIRCLE('',#1139,27.4886375643317);
#1044=AXIS2_PLACEMENT_3D('',#1446,#1152,#1153);
#1045=AXIS2_PLACEMENT_3D('',#1447,#1154,#1155);
#1046=AXIS2_PLACEMENT_3D('',#1455,#1156,#1157);
#1047=AXIS2_PLACEMENT_3D('',#1457,#1158,#1159);
#1048=AXIS2_PLACEMENT_3D('',#1459,#1160,#1161);
#1049=AXIS2_PLACEMENT_3D('',#1461,#1162,#1163);
#1050=AXIS2_PLACEMENT_3D('',#1463,#1164,#1165);
#1051=AXIS2_PLACEMENT_3D('',#1469,#1166,#1167);
#1052=AXIS2_PLACEMENT_3D('',#1470,#1168,#1169);
#1053=AXIS2_PLACEMENT_3D('',#1478,#1170,#1171);
#1054=AXIS2_PLACEMENT_3D('',#1485,#1172,#1173);
#1055=AXIS2_PLACEMENT_3D('',#1487,#1174,#1175);
#1056=AXIS2_PLACEMENT_3D('',#1489,#1176,#1177);
#1057=AXIS2_PLACEMENT_3D('',#1491,#1178,#1179);
#1058=AXIS2_PLACEMENT_3D('',#1492,#1180,#1181);
#1059=AXIS2_PLACEMENT_3D('',#1493,#1182,#1183);
#1060=AXIS2_PLACEMENT_3D('',#1501,#1184,#1185);
#1061=AXIS2_PLACEMENT_3D('',#1508,#1186,#1187);
#1062=AXIS2_PLACEMENT_3D('',#1510,#1188,#1189);
#1063=AXIS2_PLACEMENT_3D('',#1512,#1190,#1191);
#1064=AXIS2_PLACEMENT_3D('',#1514,#1192,#1193);
#1065=AXIS2_PLACEMENT_3D('',#1515,#1194,#1195);
#1066=AXIS2_PLACEMENT_3D('',#1516,#1196,#1197);
#1067=AXIS2_PLACEMENT_3D('',#1524,#1198,#1199);
#1068=AXIS2_PLACEMENT_3D('',#1531,#1200,#1201);
#1069=AXIS2_PLACEMENT_3D('',#1533,#1202,#1203);
#1070=AXIS2_PLACEMENT_3D('',#1535,#1204,#1205);
#1071=AXIS2_PLACEMENT_3D('',#1537,#1206,#1207);
#1072=AXIS2_PLACEMENT_3D('',#1538,#1208,#1209);
#1073=AXIS2_PLACEMENT_3D('',#1542,#1211,#1212);
#1074=AXIS2_PLACEMENT_3D('',#1547,#1215,#1216);
#1075=AXIS2_PLACEMENT_3D('',#1553,#1217,#1218);
#1076=AXIS2_PLACEMENT_3D('',#1563,#1219,#1220);
#1077=AXIS2_PLACEMENT_3D('',#1564,#1221,#1222);
#1078=AXIS2_PLACEMENT_3D('',#1565,#1223,#1224);
#1079=AXIS2_PLACEMENT_3D('',#1573,#1225,#1226);
#1080=AXIS2_PLACEMENT_3D('',#1583,#1227,#1228);
#1081=AXIS2_PLACEMENT_3D('',#1584,#1229,#1230);
#1082=AXIS2_PLACEMENT_3D('',#1585,#1231,#1232);
#1083=AXIS2_PLACEMENT_3D('',#1593,#1233,#1234);
#1084=AXIS2_PLACEMENT_3D('',#1602,#1235,#1236);
#1085=AXIS2_PLACEMENT_3D('',#1603,#1237,#1238);
#1086=AXIS2_PLACEMENT_3D('',#1611,#1239,#1240);
#1087=AXIS2_PLACEMENT_3D('',#1620,#1241,#1242);
#1088=AXIS2_PLACEMENT_3D('',#1621,#1243,#1244);
#1089=AXIS2_PLACEMENT_3D('',#1627,#1247,#1248);
#1090=AXIS2_PLACEMENT_3D('',#1628,#1249,#1250);
#1091=AXIS2_PLACEMENT_3D('',#1633,#1253,#1254);
#1092=AXIS2_PLACEMENT_3D('',#1634,#1255,#1256);
#1093=AXIS2_PLACEMENT_3D('',#1640,#1259,#1260);
#1094=AXIS2_PLACEMENT_3D('',#1641,#1261,#1262);
#1095=AXIS2_PLACEMENT_3D('',#1646,#1265,#1266);
#1096=AXIS2_PLACEMENT_3D('',#1647,#1267,#1268);
#1097=AXIS2_PLACEMENT_3D('',#1653,#1271,#1272);
#1098=AXIS2_PLACEMENT_3D('',#1654,#1273,#1274);
#1099=AXIS2_PLACEMENT_3D('',#1659,#1277,#1278);
#1100=AXIS2_PLACEMENT_3D('',#1660,#1279,#1280);
#1101=AXIS2_PLACEMENT_3D('',#1666,#1283,#1284);
#1102=AXIS2_PLACEMENT_3D('',#1667,#1285,#1286);
#1103=AXIS2_PLACEMENT_3D('',#1672,#1289,#1290);
#1104=AXIS2_PLACEMENT_3D('',#1673,#1291,#1292);
#1105=AXIS2_PLACEMENT_3D('',#1675,#1293,#1294);
#1106=AXIS2_PLACEMENT_3D('',#1684,#1303,#1304);
#1107=AXIS2_PLACEMENT_3D('',#1686,#1305,#1306);
#1108=AXIS2_PLACEMENT_3D('',#1687,#1307,#1308);
#1109=AXIS2_PLACEMENT_3D('',#1705,#1309,#1310);
#1110=AXIS2_PLACEMENT_3D('',#1706,#1311,#1312);
#1111=AXIS2_PLACEMENT_3D('',#1736,#1313,#1314);
#1112=AXIS2_PLACEMENT_3D('',#1742,#1318,#1319);
#1113=AXIS2_PLACEMENT_3D('',#1748,#1323,#1324);
#1114=AXIS2_PLACEMENT_3D('',#1751,#1327,#1328);
#1115=AXIS2_PLACEMENT_3D('',#1754,#1331,#1332);
#1116=AXIS2_PLACEMENT_3D('',#1757,#1335,#1336);
#1117=AXIS2_PLACEMENT_3D('',#1765,#1341,#1342);
#1118=AXIS2_PLACEMENT_3D('',#1771,#1346,#1347);
#1119=AXIS2_PLACEMENT_3D('',#1774,#1350,#1351);
#1120=AXIS2_PLACEMENT_3D('',#1777,#1354,#1355);
#1121=AXIS2_PLACEMENT_3D('',#1779,#1357,#1358);
#1122=AXIS2_PLACEMENT_3D('',#1781,#1360,#1361);
#1123=AXIS2_PLACEMENT_3D('',#1787,#1365,#1366);
#1124=AXIS2_PLACEMENT_3D('',#1793,#1370,#1371);
#1125=AXIS2_PLACEMENT_3D('',#1796,#1374,#1375);
#1126=AXIS2_PLACEMENT_3D('',#1799,#1378,#1379);
#1127=AXIS2_PLACEMENT_3D('',#1802,#1382,#1383);
#1128=AXIS2_PLACEMENT_3D('',#1808,#1387,#1388);
#1129=AXIS2_PLACEMENT_3D('',#1813,#1392,#1393);
#1130=AXIS2_PLACEMENT_3D('',#1816,#1396,#1397);
#1131=AXIS2_PLACEMENT_3D('',#1818,#1399,#1400);
#1132=AXIS2_PLACEMENT_3D('',#1820,#1402,#1403);
#1133=AXIS2_PLACEMENT_3D('',#1822,#1405,#1406);
#1134=AXIS2_PLACEMENT_3D('',#1823,#1407,#1408);
#1135=AXIS2_PLACEMENT_3D('',#1824,#1409,#1410);
#1136=AXIS2_PLACEMENT_3D('',#1826,#1412,#1413);
#1137=AXIS2_PLACEMENT_3D('',#1827,#1414,#1415);
#1138=AXIS2_PLACEMENT_3D('',#1828,#1416,#1417);
#1139=AXIS2_PLACEMENT_3D('',#1829,#1418,#1419);
#1140=AXIS2_PLACEMENT_3D('',#1830,#1420,#1421);
#1141=AXIS2_PLACEMENT_3D('',#1831,#1422,#1423);
#1142=AXIS2_PLACEMENT_3D('',#1833,#1425,#1426);
#1143=AXIS2_PLACEMENT_3D('',#1834,#1427,#1428);
#1144=AXIS2_PLACEMENT_3D('',#1835,#1429,#1430);
#1145=AXIS2_PLACEMENT_3D('',#1836,#1431,#1432);
#1146=AXIS2_PLACEMENT_3D('',#1837,#1433,#1434);
#1147=AXIS2_PLACEMENT_3D('',#1838,#1435,#1436);
#1148=AXIS2_PLACEMENT_3D('',#1840,#1438,#1439);
#1149=AXIS2_PLACEMENT_3D('',#1841,#1440,#1441);
#1150=AXIS2_PLACEMENT_3D('',#1842,#1442,#1443);
#1151=AXIS2_PLACEMENT_3D('',#1843,#1444,#1445);
#1152=DIRECTION('',(0.,0.,1.));
#1153=DIRECTION('',(1.,0.,0.));
#1154=DIRECTION('',(1.,0.,0.));
#1155=DIRECTION('',(0.,0.,-1.));
#1156=DIRECTION('',(-1.,0.,0.));
#1157=DIRECTION('',(0.,0.,-1.));
#1158=DIRECTION('',(-0.264662739422541,0.964341036335879,-1.12968248030274E-15));
#1159=DIRECTION('',(-0.964341036335879,-0.264662739422541,3.10040585901642E-16));
#1160=DIRECTION('',(1.,0.,0.));
#1161=DIRECTION('',(0.,0.,-1.));
#1162=DIRECTION('',(-0.264662739422541,2.25936496060547E-15,0.964341036335879));
#1163=DIRECTION('',(-0.964341036335879,-6.20081171803284E-16,-0.264662739422541));
#1164=DIRECTION('',(-1.,0.,0.));
#1165=DIRECTION('',(0.,0.,-1.));
#1166=DIRECTION('',(-1.,0.,0.));
#1167=DIRECTION('',(0.,0.,1.));
#1168=DIRECTION('',(-1.,0.,0.));
#1169=DIRECTION('',(0.,0.,-1.));
#1170=DIRECTION('',(1.,0.,0.));
#1171=DIRECTION('',(0.,0.,-1.));
#1172=DIRECTION('',(-1.,0.,0.));
#1173=DIRECTION('',(0.,0.,-1.));
#1174=DIRECTION('',(-0.264662739422541,0.,-0.964341036335879));
#1175=DIRECTION('',(-0.964341036335879,0.,0.264662739422541));
#1176=DIRECTION('',(1.,0.,0.));
#1177=DIRECTION('',(0.,0.,-1.));
#1178=DIRECTION('',(-0.264662739422541,0.964341036335879,-1.12968248030274E-15));
#1179=DIRECTION('',(-0.964341036335879,-0.264662739422541,3.10040585901642E-16));
#1180=DIRECTION('',(-1.,0.,0.));
#1181=DIRECTION('',(0.,0.,1.));
#1182=DIRECTION('',(-1.,0.,0.));
#1183=DIRECTION('',(0.,0.,-1.));
#1184=DIRECTION('',(1.,0.,0.));
#1185=DIRECTION('',(0.,0.,-1.));
#1186=DIRECTION('',(-1.,0.,0.));
#1187=DIRECTION('',(0.,0.,-1.));
#1188=DIRECTION('',(-0.264662739422541,-0.964341036335879,3.6031741653344E-15));
#1189=DIRECTION('',(-0.964341036335879,0.264662739422541,-9.88888691118381E-16));
#1190=DIRECTION('',(1.,0.,0.));
#1191=DIRECTION('',(0.,0.,-1.));
#1192=DIRECTION('',(-0.264662739422541,0.,-0.964341036335879));
#1193=DIRECTION('',(-0.964341036335879,0.,0.264662739422541));
#1194=DIRECTION('',(-1.,0.,0.));
#1195=DIRECTION('',(0.,0.,1.));
#1196=DIRECTION('',(-1.,0.,0.));
#1197=DIRECTION('',(0.,0.,-1.));
#1198=DIRECTION('',(1.,0.,0.));
#1199=DIRECTION('',(0.,0.,-1.));
#1200=DIRECTION('',(-1.,0.,0.));
#1201=DIRECTION('',(0.,0.,-1.));
#1202=DIRECTION('',(-0.264662739422541,2.25936496060547E-15,0.964341036335879));
#1203=DIRECTION('',(-0.964341036335879,-6.20081171803284E-16,-0.264662739422541));
#1204=DIRECTION('',(1.,0.,0.));
#1205=DIRECTION('',(0.,0.,-1.));
#1206=DIRECTION('',(-0.264662739422541,-0.964341036335879,3.6031741653344E-15));
#1207=DIRECTION('',(-0.964341036335879,0.264662739422541,-9.88888691118381E-16));
#1208=DIRECTION('',(-1.,0.,0.));
#1209=DIRECTION('',(0.,0.,1.));
#1210=DIRECTION('',(0.,1.,0.));
#1211=DIRECTION('',(1.,0.,0.));
#1212=DIRECTION('',(0.,0.,-1.));
#1213=DIRECTION('',(4.04527522259823E-15,-1.,1.17145536458252E-15));
#1214=DIRECTION('',(0.,1.17145536458252E-15,1.));
#1215=DIRECTION('',(-1.,-4.04527522259823E-15,4.73885936072546E-30));
#1216=DIRECTION('',(4.05231403988182E-15,-1.,1.17137202715334E-15));
#1217=DIRECTION('',(1.,0.,0.));
#1218=DIRECTION('',(0.,0.,-1.));
#1219=DIRECTION('',(1.,0.,0.));
#1220=DIRECTION('',(0.,0.,-1.));
#1221=DIRECTION('',(-1.,0.,0.));
#1222=DIRECTION('',(0.,0.,1.));
#1223=DIRECTION('',(1.,0.,0.));
#1224=DIRECTION('',(0.,0.,-1.));
#1225=DIRECTION('',(1.,0.,0.));
#1226=DIRECTION('',(0.,0.,-1.));
#1227=DIRECTION('',(1.,0.,0.));
#1228=DIRECTION('',(0.,0.,-1.));
#1229=DIRECTION('',(-1.,0.,0.));
#1230=DIRECTION('',(0.,0.,1.));
#1231=DIRECTION('',(1.,0.,0.));
#1232=DIRECTION('',(0.,0.,-1.));
#1233=DIRECTION('',(1.,0.,0.));
#1234=DIRECTION('',(0.,0.,-1.));
#1235=DIRECTION('',(-1.,0.,0.));
#1236=DIRECTION('',(0.,0.,1.));
#1237=DIRECTION('',(1.,0.,0.));
#1238=DIRECTION('',(0.,0.,-1.));
#1239=DIRECTION('',(1.,0.,0.));
#1240=DIRECTION('',(0.,0.,-1.));
#1241=DIRECTION('',(-1.,0.,0.));
#1242=DIRECTION('',(0.,0.,1.));
#1243=DIRECTION('',(1.,0.,0.));
#1244=DIRECTION('',(0.,0.,-1.));
#1245=DIRECTION('',(4.04527522259823E-15,0.,1.));
#1246=DIRECTION('',(0.,1.,0.));
#1247=DIRECTION('',(-1.,0.,4.04527522259823E-15));
#1248=DIRECTION('',(4.05231403988182E-15,0.,1.));
#1249=DIRECTION('',(1.,0.,0.));
#1250=DIRECTION('',(0.,0.,-1.));
#1251=DIRECTION('',(0.,1.,0.));
#1252=DIRECTION('',(4.04527522259823E-15,0.,1.));
#1253=DIRECTION('',(-1.,0.,4.04527522259823E-15));
#1254=DIRECTION('',(4.05231403988182E-15,0.,1.));
#1255=DIRECTION('',(1.,0.,0.));
#1256=DIRECTION('',(0.,0.,-1.));
#1257=DIRECTION('',(4.04527522259823E-15,1.,-3.7364106986726E-15));
#1258=DIRECTION('',(0.,-3.7364106986726E-15,-1.));
#1259=DIRECTION('',(-1.,4.04527522259823E-15,-1.51148096207912E-29));
#1260=DIRECTION('',(4.05231403988182E-15,1.,-3.73637752681955E-15));
#1261=DIRECTION('',(1.,0.,0.));
#1262=DIRECTION('',(0.,0.,-1.));
#1263=DIRECTION('',(0.,-3.7364106986726E-15,-1.));
#1264=DIRECTION('',(4.04527522259823E-15,1.,-3.7364106986726E-15));
#1265=DIRECTION('',(-1.,4.04527522259823E-15,-1.51148096207912E-29));
#1266=DIRECTION('',(4.05231403988182E-15,1.,-3.73637752681955E-15));
#1267=DIRECTION('',(1.,0.,0.));
#1268=DIRECTION('',(0.,0.,-1.));
#1269=DIRECTION('',(0.,-1.,2.34291072916505E-15));
#1270=DIRECTION('',(4.04527522259823E-15,-2.34291072916505E-15,-1.));
#1271=DIRECTION('',(-1.,-9.47771872145092E-30,-4.04527522259823E-15));
#1272=DIRECTION('',(4.05231403988182E-15,-2.34296089474118E-15,-1.));
#1273=DIRECTION('',(1.,0.,0.));
#1274=DIRECTION('',(0.,0.,-1.));
#1275=DIRECTION('',(4.04527522259823E-15,-2.34291072916505E-15,-1.));
#1276=DIRECTION('',(0.,-1.,2.34291072916505E-15));
#1277=DIRECTION('',(-1.,-9.47771872145092E-30,-4.04527522259823E-15));
#1278=DIRECTION('',(4.05231403988182E-15,-2.34296089474118E-15,-1.));
#1279=DIRECTION('',(1.,0.,0.));
#1280=DIRECTION('',(0.,0.,-1.));
#1281=DIRECTION('',(4.04527522259823E-15,-1.,1.17145536458252E-15));
#1282=DIRECTION('',(0.,1.17145536458252E-15,1.));
#1283=DIRECTION('',(-1.,-4.04527522259823E-15,4.73885936072546E-30));
#1284=DIRECTION('',(4.05231403988182E-15,-1.,1.17137202715334E-15));
#1285=DIRECTION('',(1.,0.,0.));
#1286=DIRECTION('',(0.,0.,-1.));
#1287=DIRECTION('',(0.,1.17145536458252E-15,1.));
#1288=DIRECTION('',(4.04527522259823E-15,-1.,1.17145536458252E-15));
#1289=DIRECTION('',(-1.,-4.04527522259823E-15,4.73885936072546E-30));
#1290=DIRECTION('',(4.05231403988182E-15,-1.,1.17137202715334E-15));
#1291=DIRECTION('',(1.,0.,0.));
#1292=DIRECTION('',(0.,0.,-1.));
#1293=DIRECTION('',(-1.,0.,0.));
#1294=DIRECTION('',(0.,0.,1.));
#1295=DIRECTION('',(0.,-1.,0.));
#1296=DIRECTION('',(1.37669379597195E-14,3.73750854765823E-15,1.));
#1297=DIRECTION('',(-1.37669379597195E-14,-3.73750854765824E-15,-1.));
#1298=DIRECTION('',(0.,-1.,0.));
#1299=DIRECTION('',(0.,1.,0.));
#1300=DIRECTION('',(0.,-3.74229422708498E-15,-1.));
#1301=DIRECTION('',(0.,1.,0.));
#1302=DIRECTION('',(0.,3.73334137008239E-15,1.));
#1303=DIRECTION('',(1.,0.,0.));
#1304=DIRECTION('',(0.,0.,-1.));
#1305=DIRECTION('',(1.,0.,0.));
#1306=DIRECTION('',(0.,0.,-1.));
#1307=DIRECTION('',(1.,0.,0.));
#1308=DIRECTION('',(0.,0.,-1.));
#1309=DIRECTION('',(-1.,0.,0.));
#1310=DIRECTION('',(-5.02257930538715E-16,0.,1.));
#1311=DIRECTION('',(1.,0.,0.));
#1312=DIRECTION('',(0.,0.,-1.));
#1313=DIRECTION('',(1.,0.,0.));
#1314=DIRECTION('',(0.,0.,-1.));
#1315=DIRECTION('',(0.,1.,0.));
#1316=DIRECTION('',(0.964341036335879,0.,-0.264662739422541));
#1317=DIRECTION('',(0.,1.,0.));
#1318=DIRECTION('',(0.264662739422541,0.,0.964341036335879));
#1319=DIRECTION('',(0.964341036335879,0.,-0.264662739422541));
#1320=DIRECTION('',(0.,1.,0.));
#1321=DIRECTION('',(0.964341036335879,0.,-0.264662739422541));
#1322=DIRECTION('',(0.,1.,0.));
#1323=DIRECTION('',(0.264662739422541,0.,0.964341036335879));
#1324=DIRECTION('',(0.964341036335879,0.,-0.264662739422541));
#1325=DIRECTION('',(-1.,0.,0.));
#1326=DIRECTION('',(-1.,0.,0.));
#1327=DIRECTION('',(0.,0.,-1.));
#1328=DIRECTION('',(-1.,0.,0.));
#1329=DIRECTION('',(-1.37669379597195E-14,-3.73750854765824E-15,-1.));
#1330=DIRECTION('',(4.04527522259823E-15,0.,1.));
#1331=DIRECTION('',(0.,-1.,0.));
#1332=DIRECTION('',(0.,0.,-1.));
#1333=DIRECTION('',(4.04527522259823E-15,0.,1.));
#1334=DIRECTION('',(1.37669379597195E-14,3.73750854765823E-15,1.));
#1335=DIRECTION('',(0.,-1.,0.));
#1336=DIRECTION('',(0.,0.,-1.));
#1337=DIRECTION('',(0.,-3.7364106986726E-15,-1.));
#1338=DIRECTION('',(0.964341036335879,-0.264662739422541,9.88888691118381E-16));
#1339=DIRECTION('',(0.,-3.7364106986726E-15,-1.));
#1340=DIRECTION('',(0.,-3.7364106986726E-15,-1.));
#1341=DIRECTION('',(0.264662739422541,0.964341036335879,-3.6031741653344E-15));
#1342=DIRECTION('',(0.964341036335879,-0.264662739422541,9.8879238130678E-16));
#1343=DIRECTION('',(0.,-3.7364106986726E-15,-1.));
#1344=DIRECTION('',(0.964341036335879,-0.264662739422541,9.88888691118381E-16));
#1345=DIRECTION('',(0.,-3.7364106986726E-15,-1.));
#1346=DIRECTION('',(0.264662739422541,0.964341036335879,-3.6031741653344E-15));
#1347=DIRECTION('',(0.964341036335879,-0.264662739422541,9.8879238130678E-16));
#1348=DIRECTION('',(0.,1.,0.));
#1349=DIRECTION('',(4.04527522259823E-15,1.,-3.7364106986726E-15));
#1350=DIRECTION('',(-1.,4.04527522259823E-15,-1.51148096207912E-29));
#1351=DIRECTION('',(4.05231403988182E-15,1.,-3.73637752681955E-15));
#1352=DIRECTION('',(-1.,0.,0.));
#1353=DIRECTION('',(-1.,0.,0.));
#1354=DIRECTION('',(0.,-1.,3.7364106986726E-15));
#1355=DIRECTION('',(-1.,0.,0.));
#1356=DIRECTION('',(4.04527522259823E-15,1.,-3.7364106986726E-15));
#1357=DIRECTION('',(0.,3.7364106986726E-15,1.));
#1358=DIRECTION('',(0.,-1.,3.73637752681955E-15));
#1359=DIRECTION('',(4.04527522259823E-15,1.,-3.7364106986726E-15));
#1360=DIRECTION('',(0.,3.7364106986726E-15,1.));
#1361=DIRECTION('',(0.,-1.,3.73637752681955E-15));
#1362=DIRECTION('',(0.,-1.,2.34291072916505E-15));
#1363=DIRECTION('',(0.964341036335879,6.20081171803284E-16,0.264662739422541));
#1364=DIRECTION('',(0.,-1.,2.34291072916505E-15));
#1365=DIRECTION('',(0.264662739422541,-2.25936496060547E-15,-0.964341036335879));
#1366=DIRECTION('',(0.964341036335879,6.20163642661709E-16,0.264662739422541));
#1367=DIRECTION('',(0.,-1.,2.34291072916505E-15));
#1368=DIRECTION('',(0.964341036335879,6.20081171803284E-16,0.264662739422541));
#1369=DIRECTION('',(0.,-1.,2.34291072916505E-15));
#1370=DIRECTION('',(0.264662739422541,-2.25936496060547E-15,-0.964341036335879));
#1371=DIRECTION('',(0.964341036335879,6.20163642661709E-16,0.264662739422541));
#1372=DIRECTION('',(-1.,0.,0.));
#1373=DIRECTION('',(-1.,0.,0.));
#1374=DIRECTION('',(0.,2.34291072916505E-15,1.));
#1375=DIRECTION('',(-1.,0.,0.));
#1376=DIRECTION('',(0.,3.73334137008239E-15,1.));
#1377=DIRECTION('',(4.04527522259823E-15,-2.34291072916505E-15,-1.));
#1378=DIRECTION('',(0.,1.,-2.34291072916505E-15));
#1379=DIRECTION('',(0.,2.34296089474118E-15,1.));
#1380=DIRECTION('',(4.04527522259823E-15,-2.34291072916505E-15,-1.));
#1381=DIRECTION('',(0.,-3.74229422708498E-15,-1.));
#1382=DIRECTION('',(0.,1.,-2.34291072916505E-15));
#1383=DIRECTION('',(0.,2.34296089474118E-15,1.));
#1384=DIRECTION('',(0.,1.17145536458252E-15,1.));
#1385=DIRECTION('',(0.964341036335879,0.264662739422541,-3.10040585901642E-16));
#1386=DIRECTION('',(0.,1.17145536458252E-15,1.));
#1387=DIRECTION('',(0.264662739422541,-0.964341036335879,1.12968248030274E-15));
#1388=DIRECTION('',(0.964341036335879,0.264662739422541,-3.10081821330854E-16));
#1389=DIRECTION('',(0.,1.17145536458252E-15,1.));
#1390=DIRECTION('',(0.964341036335879,0.264662739422541,-3.10040585901642E-16));
#1391=DIRECTION('',(0.,1.17145536458252E-15,1.));
#1392=DIRECTION('',(0.264662739422541,-0.964341036335879,1.12968248030274E-15));
#1393=DIRECTION('',(0.964341036335879,0.264662739422541,-3.10081821330854E-16));
#1394=DIRECTION('',(-1.,0.,0.));
#1395=DIRECTION('',(-1.,0.,0.));
#1396=DIRECTION('',(0.,1.,-1.17145536458252E-15));
#1397=DIRECTION('',(-1.,0.,0.));
#1398=DIRECTION('',(4.04527522259823E-15,-1.,1.17145536458252E-15));
#1399=DIRECTION('',(0.,-1.17145536458252E-15,-1.));
#1400=DIRECTION('',(0.,1.,-1.17137202715334E-15));
#1401=DIRECTION('',(4.04527522259823E-15,-1.,1.17145536458252E-15));
#1402=DIRECTION('',(0.,-1.17145536458252E-15,-1.));
#1403=DIRECTION('',(0.,1.,-1.17137202715334E-15));
#1404=DIRECTION('',(0.,-1.,0.));
#1405=DIRECTION('',(1.,0.,0.));
#1406=DIRECTION('',(0.,0.,-1.));
#1407=DIRECTION('',(-1.,0.,0.));
#1408=DIRECTION('',(0.,0.,1.));
#1409=DIRECTION('',(1.,0.,0.));
#1410=DIRECTION('',(0.,0.,-1.));
#1411=DIRECTION('',(0.,-1.,0.));
#1412=DIRECTION('',(-1.,0.,0.));
#1413=DIRECTION('',(0.,0.,1.));
#1414=DIRECTION('',(1.,0.,0.));
#1415=DIRECTION('',(0.,0.,-1.));
#1416=DIRECTION('',(-1.,0.,0.));
#1417=DIRECTION('',(0.,0.,1.));
#1418=DIRECTION('',(1.,0.,0.));
#1419=DIRECTION('',(0.,0.,-1.));
#1420=DIRECTION('',(-1.,0.,0.));
#1421=DIRECTION('',(0.,0.,1.));
#1422=DIRECTION('',(-1.,0.,0.));
#1423=DIRECTION('',(0.,0.,1.));
#1424=DIRECTION('',(0.,1.,0.));
#1425=DIRECTION('',(0.,0.,1.));
#1426=DIRECTION('',(1.,0.,0.));
#1427=DIRECTION('',(1.,0.,0.));
#1428=DIRECTION('',(0.,0.,-1.));
#1429=DIRECTION('',(0.,0.,-1.));
#1430=DIRECTION('',(-1.,0.,0.));
#1431=DIRECTION('',(1.,0.,0.));
#1432=DIRECTION('',(0.,0.,-1.));
#1433=DIRECTION('',(1.,0.,0.));
#1434=DIRECTION('',(0.,0.,-1.));
#1435=DIRECTION('',(0.,0.,-1.));
#1436=DIRECTION('',(-1.,0.,0.));
#1437=DIRECTION('',(0.,1.,0.));
#1438=DIRECTION('',(0.,0.,1.));
#1439=DIRECTION('',(1.,0.,0.));
#1440=DIRECTION('',(1.,0.,0.));
#1441=DIRECTION('',(0.,0.,-1.));
#1442=DIRECTION('',(1.,0.,0.));
#1443=DIRECTION('',(0.,0.,-1.));
#1444=DIRECTION('',(1.,0.,0.));
#1445=DIRECTION('',(0.,0.,-1.));
#1446=CARTESIAN_POINT('',(0.,0.,0.));
#1447=CARTESIAN_POINT('',(181.5,0.,0.));
#1448=CARTESIAN_POINT('',(181.5,-9.08288782647586,-1.23649767870154));
#1449=CARTESIAN_POINT('',(181.5,-1.25000000000016,-9.08103946570971));
#1450=CARTESIAN_POINT('',(181.5,-9.08288782647588,-1.23649767870154));
#1451=CARTESIAN_POINT('',(175.866311587439,-10.6399239441237,-1.23649767870154));
#1452=CARTESIAN_POINT('',(170.230973558237,-12.190969790324,-1.23649767870154));
#1453=CARTESIAN_POINT('',(164.595238095238,-13.7405724307088,-1.23649767870154));
#1454=CARTESIAN_POINT('',(164.595238095238,-13.7405724307088,-1.23649767870154));
#1455=CARTESIAN_POINT('',(164.595238095238,0.,0.));
#1456=CARTESIAN_POINT('',(164.595238095238,-13.7661716808847,-0.908170956040729));
#1457=CARTESIAN_POINT('',(164.615552959556,-13.7605962802341,1.61199243323346E-14));
#1458=CARTESIAN_POINT('',(114.595238095238,-27.4886375643317,-0.086359238270967));
#1459=CARTESIAN_POINT('',(114.595238095238,0.,0.));
#1460=CARTESIAN_POINT('',(114.595238095238,-0.0863592382711284,-27.4886375643317));
#1461=CARTESIAN_POINT('',(164.615552959558,-3.22398486646682E-14,-13.7605962802337));
#1462=CARTESIAN_POINT('',(164.595238095238,-0.908170956040752,-13.7661716808847));
#1463=CARTESIAN_POINT('',(164.595238095238,0.,0.));
#1464=CARTESIAN_POINT('',(164.595238095238,-1.25000000000018,-13.7393506845479));
#1465=CARTESIAN_POINT('',(164.595238095238,-1.25000000000018,-13.7393506845479));
#1466=CARTESIAN_POINT('',(170.230993375865,-1.25000000000017,-12.1896047990932));
#1467=CARTESIAN_POINT('',(175.866343905737,-1.25000000000017,-10.6383835695828));
#1468=CARTESIAN_POINT('',(181.5,-1.25000000000016,-9.08103946570973));
#1469=CARTESIAN_POINT('',(181.5,0.,0.));
#1470=CARTESIAN_POINT('',(164.595238095238,0.,0.));
#1471=CARTESIAN_POINT('',(164.595238095238,-13.7661716808847,0.908170956040761));
#1472=CARTESIAN_POINT('',(164.595238095238,-13.7381155591683,1.26350232129846));
#1473=CARTESIAN_POINT('',(164.595238095238,-13.7381155591683,1.26350232129846));
#1474=CARTESIAN_POINT('',(170.231011950472,-12.1882252356082,1.26350232129846));
#1475=CARTESIAN_POINT('',(175.866372240333,-10.6368274749131,1.26350232129846));
#1476=CARTESIAN_POINT('',(181.5,-9.07917064834952,1.26350232129846));
#1477=CARTESIAN_POINT('',(181.5,-9.0791706483495,1.26350232129846));
#1478=CARTESIAN_POINT('',(181.5,0.,0.));
#1479=CARTESIAN_POINT('',(181.5,-1.25000000000009,9.08103946570972));
#1480=CARTESIAN_POINT('',(164.595238095238,-1.25000000000008,13.7393506845479));
#1481=CARTESIAN_POINT('',(170.230991664559,-1.25000000000008,12.189605269676));
#1482=CARTESIAN_POINT('',(175.866339102852,-1.25000000000009,10.6383848972719));
#1483=CARTESIAN_POINT('',(181.5,-1.25000000000009,9.0810394657098));
#1484=CARTESIAN_POINT('',(164.595238095238,-1.25000000000008,13.7393506845479));
#1485=CARTESIAN_POINT('',(164.595238095238,0.,0.));
#1486=CARTESIAN_POINT('',(164.595238095238,-0.908170956040719,13.7661716808847));
#1487=CARTESIAN_POINT('',(164.615552959558,0.,13.7605962802337));
#1488=CARTESIAN_POINT('',(114.595238095238,-0.086359238270258,27.4886375643317));
#1489=CARTESIAN_POINT('',(114.595238095238,0.,0.));
#1490=CARTESIAN_POINT('',(114.595238095238,-27.4886375643317,0.0863592382712163));
#1491=CARTESIAN_POINT('',(164.615552959556,-13.7605962802341,1.61199243323346E-14));
#1492=CARTESIAN_POINT('',(181.5,0.,0.));
#1493=CARTESIAN_POINT('',(164.595238095238,0.,0.));
#1494=CARTESIAN_POINT('',(164.595238095238,0.908170956040719,13.7661716808847));
#1495=CARTESIAN_POINT('',(164.595238095238,1.24999999999992,13.7393506845479));
#1496=CARTESIAN_POINT('',(164.595238095238,1.24999999999992,13.7393506845479));
#1497=CARTESIAN_POINT('',(170.23099337388,1.24999999999992,12.1896047996391));
#1498=CARTESIAN_POINT('',(175.866343910452,1.24999999999991,10.6383835682793));
#1499=CARTESIAN_POINT('',(181.5,1.24999999999991,9.08103946570983));
#1500=CARTESIAN_POINT('',(181.5,1.24999999999991,9.08103946570974));
#1501=CARTESIAN_POINT('',(181.5,0.,0.));
#1502=CARTESIAN_POINT('',(181.5,9.0791706483495,1.26350232129846));
#1503=CARTESIAN_POINT('',(181.5,9.07917064834952,1.26350232129846));
#1504=CARTESIAN_POINT('',(175.866367059199,10.6368289074588,1.26350232129846));
#1505=CARTESIAN_POINT('',(170.231010057519,12.188225756188,1.26350232129846));
#1506=CARTESIAN_POINT('',(164.595238095238,13.7381155591683,1.26350232129846));
#1507=CARTESIAN_POINT('',(164.595238095238,13.7381155591683,1.26350232129846));
#1508=CARTESIAN_POINT('',(164.595238095238,0.,0.));
#1509=CARTESIAN_POINT('',(164.595238095238,13.7661716808847,0.908170956040694));
#1510=CARTESIAN_POINT('',(164.615552959556,13.7605962802341,-5.14152391615811E-14));
#1511=CARTESIAN_POINT('',(114.595238095238,27.4886375643317,0.0863592382705635));
#1512=CARTESIAN_POINT('',(114.595238095238,0.,0.));
#1513=CARTESIAN_POINT('',(114.595238095238,0.0863592382703532,27.4886375643317));
#1514=CARTESIAN_POINT('',(164.615552959558,0.,13.7605962802337));
#1515=CARTESIAN_POINT('',(181.5,0.,0.));
#1516=CARTESIAN_POINT('',(164.595238095238,0.,0.));
#1517=CARTESIAN_POINT('',(164.595238095238,13.7661716808847,-0.908170956040886));
#1518=CARTESIAN_POINT('',(164.595238095238,13.7405724307088,-1.23649767870154));
#1519=CARTESIAN_POINT('',(164.595238095238,13.7405724307088,-1.23649767870154));
#1520=CARTESIAN_POINT('',(170.2309750179,12.1909693889748,-1.23649767870154));
#1521=CARTESIAN_POINT('',(175.866315917332,10.6399227474299,-1.23649767870154));
#1522=CARTESIAN_POINT('',(181.5,9.08288782647588,-1.23649767870154));
#1523=CARTESIAN_POINT('',(181.5,9.08288782647586,-1.23649767870154));
#1524=CARTESIAN_POINT('',(181.5,0.,0.));
#1525=CARTESIAN_POINT('',(181.5,1.24999999999984,-9.08103946570975));
#1526=CARTESIAN_POINT('',(164.595238095238,1.24999999999982,-13.739350684548));
#1527=CARTESIAN_POINT('',(170.230991644826,1.24999999999983,-12.1896052751022));
#1528=CARTESIAN_POINT('',(175.86633907302,1.24999999999983,-10.6383849055187));
#1529=CARTESIAN_POINT('',(181.5,1.24999999999984,-9.08103946570977));
#1530=CARTESIAN_POINT('',(164.595238095238,1.24999999999982,-13.739350684548));
#1531=CARTESIAN_POINT('',(164.595238095238,0.,0.));
#1532=CARTESIAN_POINT('',(164.595238095238,0.908170956040687,-13.7661716808847));
#1533=CARTESIAN_POINT('',(164.615552959558,-3.22398486646682E-14,-13.7605962802337));
#1534=CARTESIAN_POINT('',(114.595238095238,0.0863592382703074,-27.4886375643317));
#1535=CARTESIAN_POINT('',(114.595238095238,0.,0.));
#1536=CARTESIAN_POINT('',(114.595238095238,27.4886375643317,-0.0863592382704403));
#1537=CARTESIAN_POINT('',(164.615552959556,13.7605962802341,-5.14152391615811E-14));
#1538=CARTESIAN_POINT('',(181.5,0.,0.));
#1539=CARTESIAN_POINT('',(164.595238095238,-25.4574070566458,-1.23649767870154));
#1540=CARTESIAN_POINT('',(164.595238095238,-25.4574070566458,-1.23649767870152));
#1541=CARTESIAN_POINT('',(164.595238095238,-13.7661716808847,-1.23649767870154));
#1542=CARTESIAN_POINT('',(164.595238095238,0.,0.));
#1543=CARTESIAN_POINT('',(164.595238095238,-25.4567476429569,-1.24999999999997));
#1544=CARTESIAN_POINT('',(164.595238095238,-13.7661716808847,-1.24999999999998));
#1545=CARTESIAN_POINT('',(164.595238095238,-13.7661716808847,-1.24999999999998));
#1546=CARTESIAN_POINT('',(164.595238095238,-13.7661716808847,-1.24999999999998));
#1547=CARTESIAN_POINT('',(164.595238095238,-13.7661716808847,-1.24999999999998));
#1548=CARTESIAN_POINT('',(164.595238095238,-25.4574070566458,-1.23649767870152));
#1549=CARTESIAN_POINT('',(170.230158922579,-25.2603993088319,-1.23649767870152));
#1550=CARTESIAN_POINT('',(175.865079562079,-25.063386188195,-1.23649767870154));
#1551=CARTESIAN_POINT('',(181.5,-24.8663673022952,-1.23649767870154));
#1552=CARTESIAN_POINT('',(181.5,-24.8663673022952,-1.23649767870154));
#1553=CARTESIAN_POINT('',(181.5,0.,0.));
#1554=CARTESIAN_POINT('',(181.5,-1.25000000000022,-24.8656922148185));
#1555=CARTESIAN_POINT('',(181.5,-1.25000000000022,-24.8656922148185));
#1556=CARTESIAN_POINT('',(175.980985693913,-1.25000000000022,-25.0586638073515));
#1557=CARTESIAN_POINT('',(170.461971190183,-1.25000000000022,-25.2516297473314));
#1558=CARTESIAN_POINT('',(164.942956502015,-1.25000000000022,-25.4445904119833));
#1559=CARTESIAN_POINT('',(164.827050366504,-1.25000000000022,-25.4486428246347));
#1560=CARTESIAN_POINT('',(164.711144230912,-1.25000000000022,-25.4526952349581));
#1561=CARTESIAN_POINT('',(164.595238095238,-1.25000000000022,-25.4567476429569));
#1562=CARTESIAN_POINT('',(164.595238095238,-1.25000000000022,-25.4567476429569));
#1563=CARTESIAN_POINT('',(164.595238095238,0.,0.));
#1564=CARTESIAN_POINT('',(164.595238095238,0.,0.));
#1565=CARTESIAN_POINT('',(164.595238095238,0.,0.));
#1566=CARTESIAN_POINT('',(164.595238095238,1.24999999999978,-25.4567476429569));
#1567=CARTESIAN_POINT('',(164.595238095238,25.4567476429569,-1.2500000000001));
#1568=CARTESIAN_POINT('',(164.595238095238,1.24999999999978,-25.4567476429569));
#1569=CARTESIAN_POINT('',(170.230158926825,1.24999999999978,-25.2597347918444));
#1570=CARTESIAN_POINT('',(175.865079566426,1.24999999999978,-25.0627164495019));
#1571=CARTESIAN_POINT('',(181.5,1.24999999999978,-24.8656922148186));
#1572=CARTESIAN_POINT('',(181.5,1.24999999999978,-24.8656922148186));
#1573=CARTESIAN_POINT('',(181.5,0.,0.));
#1574=CARTESIAN_POINT('',(181.5,24.8663673022952,-1.23649767870154));
#1575=CARTESIAN_POINT('',(181.5,24.8663673022952,-1.23649767870154));
#1576=CARTESIAN_POINT('',(175.9772382637,25.0594646807522,-1.23649767870154));
#1577=CARTESIAN_POINT('',(170.454476333761,25.2525565210531,-1.23649767870154));
#1578=CARTESIAN_POINT('',(164.93171422313,25.4456431930096,-1.23649767870154));
#1579=CARTESIAN_POINT('',(164.819555513907,25.4495644830201,-1.23649767870154));
#1580=CARTESIAN_POINT('',(164.70739680461,25.4534857708978,-1.23649767870154));
#1581=CARTESIAN_POINT('',(164.595238095238,25.4574070566458,-1.23649767870154));
#1582=CARTESIAN_POINT('',(164.595238095238,25.4574070566458,-1.23649767870154));
#1583=CARTESIAN_POINT('',(164.595238095238,0.,0.));
#1584=CARTESIAN_POINT('',(164.595238095238,0.,0.));
#1585=CARTESIAN_POINT('',(164.595238095238,0.,0.));
#1586=CARTESIAN_POINT('',(164.595238095238,25.4560810503358,1.26350232129845));
#1587=CARTESIAN_POINT('',(164.595238095238,1.24999999999997,25.4567476429569));
#1588=CARTESIAN_POINT('',(164.595238095238,25.4560810503358,1.26350232129845));
#1589=CARTESIAN_POINT('',(170.230158931118,25.2590630400971,1.26350232129845));
#1590=CARTESIAN_POINT('',(175.865079570822,25.0620394189167,1.26350232129846));
#1591=CARTESIAN_POINT('',(181.5,24.8650097769167,1.26350232129846));
#1592=CARTESIAN_POINT('',(181.5,24.8650097769167,1.26350232129846));
#1593=CARTESIAN_POINT('',(181.5,0.,0.));
#1594=CARTESIAN_POINT('',(181.5,1.24999999999997,24.8656922148186));
#1595=CARTESIAN_POINT('',(181.5,1.24999999999997,24.8656922148186));
#1596=CARTESIAN_POINT('',(175.973107869188,1.24999999999997,25.0589392544329));
#1597=CARTESIAN_POINT('',(170.446215540169,1.24999999999997,25.252180625354));
#1598=CARTESIAN_POINT('',(164.919323026203,1.24999999999997,25.4454167064));
#1599=CARTESIAN_POINT('',(164.811294715952,1.24999999999997,25.4491936872735));
#1600=CARTESIAN_POINT('',(164.70326640563,1.24999999999997,25.4529706661249));
#1601=CARTESIAN_POINT('',(164.595238095238,1.24999999999997,25.4567476429569));
#1602=CARTESIAN_POINT('',(164.595238095238,0.,0.));
#1603=CARTESIAN_POINT('',(164.595238095238,0.,0.));
#1604=CARTESIAN_POINT('',(164.595238095238,-1.25000000006513,25.4567476429537));
#1605=CARTESIAN_POINT('',(164.595238095238,-25.4560810503358,1.26350232129846));
#1606=CARTESIAN_POINT('',(164.595238095238,-1.25000000006513,25.4567476429537));
#1607=CARTESIAN_POINT('',(170.230158926825,-1.25000000006513,25.2597347918412));
#1608=CARTESIAN_POINT('',(175.865079566426,-1.25000000000003,25.0627164495019));
#1609=CARTESIAN_POINT('',(181.5,-1.25000000000003,24.8656922148185));
#1610=CARTESIAN_POINT('',(181.5,-1.25000000000003,24.8656922148185));
#1611=CARTESIAN_POINT('',(181.5,0.,0.));
#1612=CARTESIAN_POINT('',(181.5,-24.8650097769167,1.26350232129846));
#1613=CARTESIAN_POINT('',(181.5,-24.8650097769167,1.26350232129846));
#1614=CARTESIAN_POINT('',(175.97685249239,-25.0581311864938,1.26350232129846));
#1615=CARTESIAN_POINT('',(170.45370478252,-25.2512468116175,1.26350232129846));
#1616=CARTESIAN_POINT('',(164.930556883913,-25.4443570386117,1.26350232129846));
#1617=CARTESIAN_POINT('',(164.818783954432,-25.4482650447307,1.26350232129846));
#1618=CARTESIAN_POINT('',(164.707011024874,-25.4521730486377,1.26350232129846));
#1619=CARTESIAN_POINT('',(164.595238095238,-25.4560810503358,1.26350232129846));
#1620=CARTESIAN_POINT('',(164.595238095238,0.,0.));
#1621=CARTESIAN_POINT('',(164.595238095238,0.,0.));
#1622=CARTESIAN_POINT('',(164.595238095238,1.25,27.4602020229857));
#1623=CARTESIAN_POINT('',(164.595238095238,4.11996825544492E-15,27.4886375643317));
#1624=CARTESIAN_POINT('',(164.595238095238,1.25,13.7661716808847));
#1625=CARTESIAN_POINT('',(164.595238095238,1.25,27.4886375643317));
#1626=CARTESIAN_POINT('',(164.595238095238,-1.25,27.4886375643317));
#1627=CARTESIAN_POINT('',(164.595238095238,-1.25,13.7661716808847));
#1628=CARTESIAN_POINT('',(164.595238095238,0.,0.));
#1629=CARTESIAN_POINT('',(164.595238095238,-1.25,27.4602020229857));
#1630=CARTESIAN_POINT('',(164.595238095238,-1.25,27.4886375643317));
#1631=CARTESIAN_POINT('',(164.595238095238,-1.25,27.4886375643317));
#1632=CARTESIAN_POINT('',(164.595238095238,-1.25,13.7661716808847));
#1633=CARTESIAN_POINT('',(164.595238095238,-1.25,13.7661716808847));
#1634=CARTESIAN_POINT('',(164.595238095238,0.,0.));
#1635=CARTESIAN_POINT('',(164.595238095238,27.4602020229857,-1.2500000000001));
#1636=CARTESIAN_POINT('',(164.595238095238,27.4886375643317,2.66434010270933E-11));
#1637=CARTESIAN_POINT('',(164.595238095238,13.7661716808847,-1.25000000000005));
#1638=CARTESIAN_POINT('',(164.595238095238,27.4886375643317,-1.2500000000001));
#1639=CARTESIAN_POINT('',(164.595238095238,27.4886375643317,1.2499999999999));
#1640=CARTESIAN_POINT('',(164.595238095238,13.7661716808847,1.24999999999995));
#1641=CARTESIAN_POINT('',(164.595238095238,0.,0.));
#1642=CARTESIAN_POINT('',(164.595238095238,27.4602020229858,1.2499999999999));
#1643=CARTESIAN_POINT('',(164.595238095238,27.4886375643317,1.2499999999999));
#1644=CARTESIAN_POINT('',(164.595238095238,27.4886375643317,1.2499999999999));
#1645=CARTESIAN_POINT('',(164.595238095238,13.7661716808847,1.24999999999995));
#1646=CARTESIAN_POINT('',(164.595238095238,13.7661716808847,1.24999999999995));
#1647=CARTESIAN_POINT('',(164.595238095238,0.,0.));
#1648=CARTESIAN_POINT('',(164.595238095238,0.,-27.4886375643317));
#1649=CARTESIAN_POINT('',(164.595238095238,1.24999999999994,-27.4602020229858));
#1650=CARTESIAN_POINT('',(164.595238095238,1.24999999999994,-27.4886375643317));
#1651=CARTESIAN_POINT('',(164.595238095238,1.24999999999994,-27.4886375643317));
#1652=CARTESIAN_POINT('',(164.595238095238,1.24999999999997,-13.7661716808847));
#1653=CARTESIAN_POINT('',(164.595238095238,1.24999999999997,-13.7661716808847));
#1654=CARTESIAN_POINT('',(164.595238095238,0.,0.));
#1655=CARTESIAN_POINT('',(164.595238095238,-1.25000000000006,-27.4602020229857));
#1656=CARTESIAN_POINT('',(164.595238095238,-1.25000000000003,-13.7661716808847));
#1657=CARTESIAN_POINT('',(164.595238095238,-1.25000000000006,-27.4886375643317));
#1658=CARTESIAN_POINT('',(164.595238095238,1.24999999999994,-27.4886375643317));
#1659=CARTESIAN_POINT('',(164.595238095238,1.24999999999997,-13.7661716808847));
#1660=CARTESIAN_POINT('',(164.595238095238,0.,0.));
#1661=CARTESIAN_POINT('',(164.595238095238,-27.4602020229857,1.25000000000003));
#1662=CARTESIAN_POINT('',(164.595238095238,-27.4886375643317,-2.91934445367792E-11));
#1663=CARTESIAN_POINT('',(164.595238095238,-13.7661716808847,1.25000000000002));
#1664=CARTESIAN_POINT('',(164.595238095238,-27.4886375643317,1.25000000000003));
#1665=CARTESIAN_POINT('',(164.595238095238,-27.4886375643317,-1.24999999999997));
#1666=CARTESIAN_POINT('',(164.595238095238,-13.7661716808847,-1.24999999999998));
#1667=CARTESIAN_POINT('',(164.595238095238,0.,0.));
#1668=CARTESIAN_POINT('',(164.595238095238,-27.4602020229857,-1.24999999999997));
#1669=CARTESIAN_POINT('',(164.595238095238,-27.4886375643317,-1.24999999999997));
#1670=CARTESIAN_POINT('',(164.595238095238,-27.4886375643317,-1.24999999999997));
#1671=CARTESIAN_POINT('',(164.595238095238,-13.7661716808847,-1.24999999999998));
#1672=CARTESIAN_POINT('',(164.595238095238,-13.7661716808847,-1.24999999999998));
#1673=CARTESIAN_POINT('',(1.5,0.,0.));
#1674=CARTESIAN_POINT('',(1.5,0.,-14.2230773783617));
#1675=CARTESIAN_POINT('',(1.5,14.2230773783617,0.));
#1676=CARTESIAN_POINT('',(181.5,25.4560810503358,1.26350232129846));
#1677=CARTESIAN_POINT('',(181.5,1.24999999999988,1.26350232129846));
#1678=CARTESIAN_POINT('',(181.5,-1.25000000000003,25.4567476429569));
#1679=CARTESIAN_POINT('',(181.5,-1.25000000000012,1.26350232129846));
#1680=CARTESIAN_POINT('',(181.5,-25.4574070566458,-1.23649767870154));
#1681=CARTESIAN_POINT('',(181.5,-1.25000000000013,-1.23649767870154));
#1682=CARTESIAN_POINT('',(181.5,1.24999999999987,-1.23649767870154));
#1683=CARTESIAN_POINT('',(181.5,1.24999999999978,-25.4567476429569));
#1684=CARTESIAN_POINT('',(181.5,0.,0.));
#1685=CARTESIAN_POINT('',(181.5,0.,-26.8983102705427));
#1686=CARTESIAN_POINT('',(181.5,0.,0.));
#1687=CARTESIAN_POINT('',(35.547619047619,0.,0.));
#1688=CARTESIAN_POINT('',(35.547619047619,0.,-27.5));
#1689=CARTESIAN_POINT('',(114.595238095238,-0.0863592382702466,27.4886375643317));
#1690=CARTESIAN_POINT('',(114.595238095238,-0.0287866021675801,27.4888184364826));
#1691=CARTESIAN_POINT('',(114.595238095238,0.0287866021676887,27.4888184364826));
#1692=CARTESIAN_POINT('',(114.595238095238,0.0863592382703552,27.4886375643317));
#1693=CARTESIAN_POINT('',(114.595238095238,27.4886375643317,-0.0863592382704358));
#1694=CARTESIAN_POINT('',(114.595898564505,27.4886375643317,-0.0287864127562565));
#1695=CARTESIAN_POINT('',(114.595898564505,27.4886375643317,0.0287864127574092));
#1696=CARTESIAN_POINT('',(114.595238095238,27.4886375643317,0.0863592382705613));
#1697=CARTESIAN_POINT('',(114.595238095238,-0.0863592382711251,-27.4886375643317));
#1698=CARTESIAN_POINT('',(114.595898564505,-0.028786412757542,-27.4886375643317));
#1699=CARTESIAN_POINT('',(114.595898564505,0.0287864127562697,-27.4886375643317));
#1700=CARTESIAN_POINT('',(114.595238095238,0.0863592382703102,-27.4886375643317));
#1701=CARTESIAN_POINT('',(114.595238095238,-27.4886375643317,0.0863592382712123));
#1702=CARTESIAN_POINT('',(114.595898564505,-27.4886375643317,0.0287864127568087));
#1703=CARTESIAN_POINT('',(114.595898564505,-27.4886375643317,-0.0287864127572515));
#1704=CARTESIAN_POINT('',(114.595238095238,-27.4886375643317,-0.0863592382709683));
#1705=CARTESIAN_POINT('',(114.595238095238,0.,0.));
#1706=CARTESIAN_POINT('',(3.94418834417843,0.,0.));
#1707=CARTESIAN_POINT('',(3.94418834417843,0.,-18.6538477393125));
#1708=CARTESIAN_POINT('',(35.547619047619,0.,-27.5));
#1709=CARTESIAN_POINT('',(35.547619047619,55.,-27.5));
#1710=CARTESIAN_POINT('',(35.547619047619,55.,27.5));
#1711=CARTESIAN_POINT('',(35.547619047619,0.,27.5));
#1712=CARTESIAN_POINT('',(35.547619047619,-55.,27.5));
#1713=CARTESIAN_POINT('',(35.547619047619,-55.,-27.5));
#1714=CARTESIAN_POINT('',(35.547619047619,0.,-27.5));
#1715=CARTESIAN_POINT('',(24.2972996866202,0.,-27.6883641951383));
#1716=CARTESIAN_POINT('',(24.2972996866202,55.3767283902766,-27.6883641951383));
#1717=CARTESIAN_POINT('',(24.2972996866202,55.3767283902766,27.6883641951383));
#1718=CARTESIAN_POINT('',(24.2972996866202,0.,27.6883641951383));
#1719=CARTESIAN_POINT('',(24.2972996866202,-55.3767283902766,27.6883641951383));
#1720=CARTESIAN_POINT('',(24.2972996866202,-55.3767283902766,-27.6883641951383));
#1721=CARTESIAN_POINT('',(24.2972996866202,0.,-27.6883641951383));
#1722=CARTESIAN_POINT('',(13.4618785856049,0.,-24.6554091413753));
#1723=CARTESIAN_POINT('',(13.4618785856049,49.3108182827506,-24.6554091413753));
#1724=CARTESIAN_POINT('',(13.4618785856049,49.3108182827506,24.6554091413753));
#1725=CARTESIAN_POINT('',(13.4618785856049,0.,24.6554091413753));
#1726=CARTESIAN_POINT('',(13.4618785856049,-49.3108182827506,24.6554091413753));
#1727=CARTESIAN_POINT('',(13.4618785856049,-49.3108182827506,-24.6554091413753));
#1728=CARTESIAN_POINT('',(13.4618785856049,0.,-24.6554091413753));
#1729=CARTESIAN_POINT('',(3.94418834417841,0.,-18.6538477393125));
#1730=CARTESIAN_POINT('',(3.94418834417841,37.3076954786249,-18.6538477393125));
#1731=CARTESIAN_POINT('',(3.94418834417841,37.3076954786249,18.6538477393125));
#1732=CARTESIAN_POINT('',(3.94418834417841,0.,18.6538477393125));
#1733=CARTESIAN_POINT('',(3.94418834417841,-37.3076954786249,18.6538477393125));
#1734=CARTESIAN_POINT('',(3.94418834417841,-37.3076954786249,-18.6538477393125));
#1735=CARTESIAN_POINT('',(3.94418834417841,0.,-18.6538477393125));
#1736=CARTESIAN_POINT('',(6.73809523809524,0.,0.));
#1737=CARTESIAN_POINT('',(114.595238095238,-1.25,27.4886375643317));
#1738=CARTESIAN_POINT('',(114.595238095238,1.25,27.4886375643317));
#1739=CARTESIAN_POINT('',(114.595238095238,1.25,27.4886375643317));
#1740=CARTESIAN_POINT('',(164.595238095238,1.24999999999992,13.7661716808847));
#1741=CARTESIAN_POINT('',(164.595238095238,-1.25,13.7661716808847));
#1742=CARTESIAN_POINT('',(114.595238095238,-1.25,27.4886375643317));
#1743=CARTESIAN_POINT('',(164.595238095238,-1.25,13.7661716808847));
#1744=CARTESIAN_POINT('',(164.595238095238,-1.25000000000008,13.7661716808847));
#1745=CARTESIAN_POINT('',(114.595238095238,-1.25,27.4886375643317));
#1746=CARTESIAN_POINT('',(114.595238095238,-1.25,27.4886375643317));
#1747=CARTESIAN_POINT('',(114.595238095238,-1.25,27.4886375643317));
#1748=CARTESIAN_POINT('',(114.595238095238,-1.25,27.4886375643317));
#1749=CARTESIAN_POINT('',(164.595238095238,-1.25,27.4886375643317));
#1750=CARTESIAN_POINT('',(164.595238095238,1.25,27.4886375643317));
#1751=CARTESIAN_POINT('',(164.595238095238,-1.25,27.4886375643317));
#1752=CARTESIAN_POINT('',(164.595238095238,-1.25000000000003,25.4567476429569));
#1753=CARTESIAN_POINT('',(164.595238095238,-1.25,13.7661716808847));
#1754=CARTESIAN_POINT('',(0.,-1.25,0.));
#1755=CARTESIAN_POINT('',(164.595238095238,1.25,13.7661716808847));
#1756=CARTESIAN_POINT('',(164.595238095238,1.24999999999988,1.26350232129846));
#1757=CARTESIAN_POINT('',(0.,1.25,0.));
#1758=CARTESIAN_POINT('',(114.595238095238,27.4886375643317,1.2499999999999));
#1759=CARTESIAN_POINT('',(114.595238095238,27.4886375643317,-1.2500000000001));
#1760=CARTESIAN_POINT('',(114.595238095238,27.4886375643317,-1.2500000000001));
#1761=CARTESIAN_POINT('',(164.595238095238,13.7661716808847,-1.25000000000005));
#1762=CARTESIAN_POINT('',(164.595238095238,13.7661716808847,1.24999999999995));
#1763=CARTESIAN_POINT('',(164.595238095238,13.7661716808847,-1.23649767870154));
#1764=CARTESIAN_POINT('',(164.595238095238,13.7661716808847,1.24999999999995));
#1765=CARTESIAN_POINT('',(114.595238095238,27.4886375643317,1.2499999999999));
#1766=CARTESIAN_POINT('',(164.595238095238,13.7661716808847,1.24999999999995));
#1767=CARTESIAN_POINT('',(164.595238095238,13.7661716808847,1.24999999999995));
#1768=CARTESIAN_POINT('',(114.595238095238,27.4886375643317,1.2499999999999));
#1769=CARTESIAN_POINT('',(114.595238095238,27.4886375643317,1.2499999999999));
#1770=CARTESIAN_POINT('',(114.595238095238,27.4886375643317,1.2499999999999));
#1771=CARTESIAN_POINT('',(114.595238095238,27.4886375643317,1.2499999999999));
#1772=CARTESIAN_POINT('',(164.595238095238,1.24999999999987,-1.23649767870154));
#1773=CARTESIAN_POINT('',(164.595238095238,13.7661716808847,-1.25000000000005));
#1774=CARTESIAN_POINT('',(164.595238095238,13.7661716808847,1.24999999999995));
#1775=CARTESIAN_POINT('',(164.595238095238,27.4886375643317,1.2499999999999));
#1776=CARTESIAN_POINT('',(164.595238095238,27.4886375643317,-1.2500000000001));
#1777=CARTESIAN_POINT('',(164.595238095238,27.4886375643317,1.2499999999999));
#1778=CARTESIAN_POINT('',(164.595238095238,13.7661716808847,1.24999999999995));
#1779=CARTESIAN_POINT('',(0.,4.67051337334075E-15,1.25));
#1780=CARTESIAN_POINT('',(164.595238095238,13.7661716808847,-1.25000000000005));
#1781=CARTESIAN_POINT('',(0.,-4.67051337334075E-15,-1.25));
#1782=CARTESIAN_POINT('',(114.595238095238,1.24999999999994,-27.4886375643317));
#1783=CARTESIAN_POINT('',(114.595238095238,-1.25000000000006,-27.4886375643317));
#1784=CARTESIAN_POINT('',(114.595238095238,-1.25000000000006,-27.4886375643317));
#1785=CARTESIAN_POINT('',(164.595238095238,-1.25000000000018,-13.7661716808847));
#1786=CARTESIAN_POINT('',(164.595238095238,1.24999999999997,-13.7661716808847));
#1787=CARTESIAN_POINT('',(114.595238095238,1.24999999999994,-27.4886375643317));
#1788=CARTESIAN_POINT('',(164.595238095238,1.24999999999997,-13.7661716808847));
#1789=CARTESIAN_POINT('',(164.595238095238,1.24999999999982,-13.7661716808847));
#1790=CARTESIAN_POINT('',(114.595238095238,1.24999999999994,-27.4886375643317));
#1791=CARTESIAN_POINT('',(114.595238095238,1.24999999999994,-27.4886375643317));
#1792=CARTESIAN_POINT('',(114.595238095238,1.24999999999994,-27.4886375643317));
#1793=CARTESIAN_POINT('',(114.595238095238,1.24999999999994,-27.4886375643317));
#1794=CARTESIAN_POINT('',(164.595238095238,1.24999999999994,-27.4886375643317));
#1795=CARTESIAN_POINT('',(164.595238095238,-1.25000000000006,-27.4886375643317));
#1796=CARTESIAN_POINT('',(164.595238095238,1.24999999999994,-27.4886375643317));
#1797=CARTESIAN_POINT('',(164.595238095238,1.24999999999978,-25.4567476429569));
#1798=CARTESIAN_POINT('',(164.595238095238,1.24999999999997,-13.7661716808847));
#1799=CARTESIAN_POINT('',(0.,1.25,-2.92863841145631E-15));
#1800=CARTESIAN_POINT('',(164.595238095238,-1.25000000000003,-13.7661716808847));
#1801=CARTESIAN_POINT('',(164.595238095238,-1.25000000000013,-1.23649767870154));
#1802=CARTESIAN_POINT('',(0.,-1.25,2.92863841145631E-15));
#1803=CARTESIAN_POINT('',(114.595238095238,-27.4886375643317,-1.24999999999997));
#1804=CARTESIAN_POINT('',(114.595238095238,-27.4886375643317,1.25000000000003));
#1805=CARTESIAN_POINT('',(114.595238095238,-27.4886375643317,1.25000000000003));
#1806=CARTESIAN_POINT('',(164.595238095238,-13.7661716808847,1.25000000000002));
#1807=CARTESIAN_POINT('',(164.595238095238,-13.7661716808847,-1.24999999999998));
#1808=CARTESIAN_POINT('',(114.595238095238,-27.4886375643317,-1.24999999999997));
#1809=CARTESIAN_POINT('',(164.595238095238,-13.7661716808847,-1.24999999999998));
#1810=CARTESIAN_POINT('',(114.595238095238,-27.4886375643317,-1.24999999999997));
#1811=CARTESIAN_POINT('',(114.595238095238,-27.4886375643317,-1.24999999999997));
#1812=CARTESIAN_POINT('',(114.595238095238,-27.4886375643317,-1.24999999999997));
#1813=CARTESIAN_POINT('',(114.595238095238,-27.4886375643317,-1.24999999999997));
#1814=CARTESIAN_POINT('',(164.595238095238,-27.4886375643317,-1.24999999999997));
#1815=CARTESIAN_POINT('',(164.595238095238,-27.4886375643317,1.25000000000003));
#1816=CARTESIAN_POINT('',(164.595238095238,-27.4886375643317,-1.24999999999997));
#1817=CARTESIAN_POINT('',(164.595238095238,-13.7661716808847,-1.24999999999998));
#1818=CARTESIAN_POINT('',(0.,-1.46431920572816E-15,-1.25));
#1819=CARTESIAN_POINT('',(164.595238095238,-13.7661716808847,1.25000000000002));
#1820=CARTESIAN_POINT('',(0.,1.46431920572816E-15,1.25));
#1821=CARTESIAN_POINT('',(164.595238095238,-1.25000000000012,1.26350232129846));
#1822=CARTESIAN_POINT('',(164.595238095238,0.,0.));
#1823=CARTESIAN_POINT('',(164.595238095238,27.4886375643317,0.));
#1824=CARTESIAN_POINT('',(164.595238095238,0.,0.));
#1825=CARTESIAN_POINT('',(164.595238095238,25.4560810503358,1.26350232129846));
#1826=CARTESIAN_POINT('',(164.595238095238,27.4886375643317,0.));
#1827=CARTESIAN_POINT('',(164.595238095238,0.,0.));
#1828=CARTESIAN_POINT('',(164.595238095238,27.4886375643317,0.));
#1829=CARTESIAN_POINT('',(164.595238095238,0.,0.));
#1830=CARTESIAN_POINT('',(164.595238095238,27.4886375643317,0.));
#1831=CARTESIAN_POINT('',(181.5,0.,0.));
#1832=CARTESIAN_POINT('',(164.595238095238,-25.4574070566458,-1.23649767870154));
#1833=CARTESIAN_POINT('',(181.5,-25.4574070566458,-1.23649767870154));
#1834=CARTESIAN_POINT('',(164.595238095238,0.,-3.5527136788005E-15));
#1835=CARTESIAN_POINT('',(181.5,-1.25000000000012,1.26350232129846));
#1836=CARTESIAN_POINT('',(164.595238095238,0.,-3.5527136788005E-15));
#1837=CARTESIAN_POINT('',(164.595238095238,0.,-3.5527136788005E-15));
#1838=CARTESIAN_POINT('',(181.5,25.4560810503358,1.26350232129846));
#1839=CARTESIAN_POINT('',(164.595238095238,1.24999999999987,-1.23649767870154));
#1840=CARTESIAN_POINT('',(181.5,1.24999999999987,-1.23649767870154));
#1841=CARTESIAN_POINT('',(164.595238095238,0.,-3.5527136788005E-15));
#1842=CARTESIAN_POINT('',(164.595238095238,0.,-3.5527136788005E-15));
#1843=CARTESIAN_POINT('',(164.595238095238,0.,-3.5527136788005E-15));
#1844=MECHANICAL_DESIGN_GEOMETRIC_PRESENTATION_REPRESENTATION('',(#24),
#1845);
#1845=(
GEOMETRIC_REPRESENTATION_CONTEXT(3)
GLOBAL_UNCERTAINTY_ASSIGNED_CONTEXT((#1846))
GLOBAL_UNIT_ASSIGNED_CONTEXT((#1852,#1848,#1847))
REPRESENTATION_CONTEXT('hardkill-tek','TOP_LEVEL_ASSEMBLY_PART')
);
#1846=UNCERTAINTY_MEASURE_WITH_UNIT(LENGTH_MEASURE(0.0508),#1852,
'DISTANCE_ACCURACY_VALUE','Maximum Tolerance applied to model');
#1847=(
NAMED_UNIT(*)
SI_UNIT($,.STERADIAN.)
SOLID_ANGLE_UNIT()
);
#1848=(
CONVERSION_BASED_UNIT('DEGREE',#1850)
NAMED_UNIT(#1849)
PLANE_ANGLE_UNIT()
);
#1849=DIMENSIONAL_EXPONENTS(0.,0.,0.,0.,0.,0.,0.);
#1850=PLANE_ANGLE_MEASURE_WITH_UNIT(PLANE_ANGLE_MEASURE(0.0174532925),#1851);
#1851=(
NAMED_UNIT(*)
PLANE_ANGLE_UNIT()
SI_UNIT($,.RADIAN.)
);
#1852=(
LENGTH_UNIT()
NAMED_UNIT(*)
SI_UNIT(.MILLI.,.METRE.)
);
ENDSEC;
END-ISO-10303-21;
